<?xml version="1.0" standalone="no"?><!DOCTYPE svg PUBLIC "-//W3C//DTD SVG 1.1//EN" "http://www.w3.org/Graphics/SVG/1.1/DTD/svg11.dtd"><svg t="1680369519072" class="icon" viewBox="0 0 1050 1024" version="1.1" xmlns="http://www.w3.org/2000/svg" p-id="3492" xmlns:xlink="http://www.w3.org/1999/xlink" width="32.8125" height="32"><path d="M140.65922619 129.99255953m136.82606457 0l499.01270583 0q136.82606458 0 136.82606458 136.82606457l0 479.69608515q0 136.82606458-136.82606458 136.82606456l-499.01270584 0q-136.82606458 0-136.82606456-136.82606456l0-479.69608515q0-136.82606458 136.82606456-136.82606457Z" fill="#00005B" p-id="3493"></path><path d="M451.06122618 580.71371363H331.32715237l-24.3614788 75.82095615A6.09761368 6.09761368 0 0 1 300.74572172 661.19963366H240.10119047q-5.18973198 0-3.62830523-5.70162252l103.6658656-297.3246482c1.03665865-3.10997592 2.07331728-6.14912461 3.10997591-10.12512876a110.73252934 110.73252934 0 0 0 2.07331727-20.99072814 3.20977837 3.20977837 0 0 1 3.62830525-3.63152464h82.41436272q3.61864708 0 4.14663457 2.59486598l117.66075727 329.99227369q1.55176857 5.18973198-3.10997593 5.1865126h-67.38281243a4.79052217 4.79052217 0 0 1-5.18329321-3.62830525zM349.98700793 516.78213725h81.89603339q-3.10997592-10.36014764-7.25661049-23.32482016-4.15307334-12.94857486-8.81159845-27.7290086l-9.32992777-29.544772q-4.66496388-14.7739957-8.55404386-28.50811264-3.88586057-13.7276789-6.9958365-25.14058211h-0.51832931a418.0052371 418.0052371 0 0 1-10.88491574 41.46634566q-7.26626865 23.32481942-14.77399496 47.68629823-7.51738521 24.37113697-14.77077631 45.09465162zM743.91729602 551.20113623h-102.10765752a72.81722218 72.81722218 0 0 0 9.85147648 28.55640416 53.32675169 53.32675169 0 0 0 23.57915539 19.43895959 98.48257238 98.48257238 0 0 0 41.20879104 8.07756729 186.73699346 186.73699346 0 0 0 33.43063185-3.670158 123.22072457 123.22072457 0 0 0 28.74635093-7.49484878c1.722399-1.37469937 2.59164661-0.51510993 2.59164733 2.59486598v49.24128621a7.67513735 7.67513735 0 0 1-0.77910404 3.88585984 7.43689907 7.43689907 0 0 1-2.33087263 2.33087263 131.81662119 131.81662119 0 0 1-32.11388217 9.56816603 227.80734867 227.80734867 0 0 1-45.61298021 3.88585984q-36.81104067 0-61.68440928-11.40324503a109.93410898 109.93410898 0 0 1-40.42646837-30.58142994 119.75339085 119.75339085 0 0 1-22.28816078-42.24223103 166.34186136 166.34186136 0 0 1-6.73828191-46.90719418 163.37354066 163.37354066 0 0 1 8.03571455-51.06026754 133.36516964 133.36516964 0 0 1 24.10070408-44.0547736 115.78382549 115.78382549 0 0 1 38.87469978-30.58464931c15.20218072-7.42402154 33.17307726-10.08971476 53.90625009-10.08971549a116.97823627 116.97823627 0 0 1 50.0171701 9.85147648 88.15461863 88.15461863 0 0 1 33.95218057 25.63959511 117.8828986 117.8828986 0 0 1 19.17818486 36.54060778 130.21978047 130.21978047 0 0 1 6.21995185 39.3930291q0 11.40646444-0.77910331 20.73317282-0.77266453 9.32992777-1.29421398 13.47656235a4.69715848 4.69715848 0 0 1-4.66818327 4.14663455q-3.10675653 0-10.62414101 0.77910405-7.51738521 0.77588393-18.65663689 1.03665864c-7.43689907 0.1770692-15.29232503-1.08816956-23.58559414-1.08816955z m-102.10765752-47.21626045h67.89792236q12.44312308 0 18.40230095-0.2575546a18.10611298 18.10611298 0 0 0 7.51738446-2.49506354v-3.10997594a41.46634639 41.46634639 0 0 0-2.07331728-11.9215751 42.34525214 42.34525214 0 0 0-41.98145559-29.54477128 45.02704305 45.02704305 0 0 0-42.76699914 24.36147808 74.98068303 74.98068303 0 0 0-6.99583576 22.96746238z" fill="#9999FF" p-id="3494"></path></svg>