<?xml version="1.0" standalone="no"?><!DOCTYPE svg PUBLIC "-//W3C//DTD SVG 1.1//EN" "http://www.w3.org/Graphics/SVG/1.1/DTD/svg11.dtd"><svg t="1680369538686" class="icon" viewBox="0 0 1050 1024" version="1.1" xmlns="http://www.w3.org/2000/svg" p-id="3806" xmlns:xlink="http://www.w3.org/1999/xlink" width="32.8125" height="32"><path d="M140.74388227 129.90790344m136.82606458 0l499.01270583 0q136.82606458 0 136.82606458 136.82606458l0 479.69608514q0 136.82606458-136.82606458 136.82606457l-499.01270584 0q-136.82606458 0-136.82606457-136.82606457l0-479.69608514q0-136.82606458 136.82606457-136.82606458Z" fill="#330000" p-id="3807"></path><path d="M515.16438355 582.00697631H395.43352839l-24.36469746 75.67608155a6.09761368 6.09761368 0 0 1-6.21995184 4.66818327H304.20434783q-5.18329321 0-3.62830523-5.7048419l103.66586486-298.55769239q1.55820735-4.66496388 3.11319531-10.624141a110.9997421 110.9997421 0 0 0 2.07009789-20.99072817 3.20655899 3.20655899 0 0 1 3.63152537-3.63152462h82.41114333q3.62186647 0 4.14663456 2.5916466l117.66397665 331.73076888q1.55176857 5.18973198-3.11319532 5.18329322h-67.38281241a4.79052217 4.79052217 0 0 1-5.18329322-3.62830525z m-101.07421899-65.30949515h81.89603412q-3.10997592-10.36014764-7.25661048-23.32482015-4.15307334-12.94857486-8.80837907-27.7290086l-9.33314789-29.544772q-4.66496388-14.7739957-8.55082374-28.50811264-3.88907996-13.7276789-6.9958365-25.14058212h-0.5215487a418.8712653 418.8712653 0 0 1-10.88169635 41.46634566q-7.26626865 23.32481942-14.77721509 47.68629823-7.51738521 24.37113697-14.7707763 45.09465162zM687.24328142 377.78522178a37.59658274 37.59658274 0 0 1-28.50811336-11.40324581 41.00596676 41.00596676 0 0 1-10.88169635-29.54477127 38.03120727 38.03120727 0 0 1 11.66080039-28.76566796 40.05301364 40.05301364 0 0 1 28.76566796-11.14569047q18.66307493 0 29.28721668 11.14569047a40.01759965 40.01759965 0 0 1 10.62414175 28.76566796 40.48119866 40.48119866 0 0 1-11.14247106 29.54477127 39.77292261 39.77292261 0 0 1-29.80554601 11.40324581z m-35.76472386 279.38272615V409.40009094c0-3.10997592 1.37791877-4.66496388 4.14663457-4.66496388h63.75450719q4.14341518 0 4.14985467 4.66818326v247.75819882q0 5.18973198-4.14985467 5.18329322H656.14352146q-4.66174451 0-4.66496389-5.18329321z" fill="#FF9A00" p-id="3808"></path></svg>