<?xml version="1.0" standalone="no"?><!DOCTYPE svg PUBLIC "-//W3C//DTD SVG 1.1//EN" "http://www.w3.org/Graphics/SVG/1.1/DTD/svg11.dtd"><svg t="1680367500760" class="icon" viewBox="0 0 1024 1024" version="1.1" xmlns="http://www.w3.org/2000/svg" p-id="3231" width="32" height="32" xmlns:xlink="http://www.w3.org/1999/xlink"><path d="M842.61981201 318.18247477l1.85394287-1.23596191c-3.70788575-6.79779052-9.26971435-12.9776001-14.83154297-16.06750488L531.15740967 129.08030193c-4.94384766-3.08990479-11.74163818-4.3258667-19.15740967-4.3258667-7.41577148 0-14.21356201 1.85394287-19.15740967 4.3258667l-296.63085937 172.41668701c-10.50567627 6.17980958-17.92144776 21.62933349-17.92144776 33.37097168v344.21539306c0 6.79779052 1.23596192 14.21356201 5.56182862 21.01135254l-1.23596192 0.61798096c3.08990479 4.94384766 7.41577148 9.26971435 11.74163819 11.74163818l297.86682129 172.41668701c4.94384766 3.08990479 11.74163818 4.3258667 19.15740966 4.3258667 7.41577148 0 14.21356201-1.85394287 19.15740968-4.3258667l296.63085937-172.41668701c10.50567627-6.17980958 17.92144776-21.62933349 17.92144775-33.37097168V334.24997966c0.61798096-4.94384766 0-10.50567627-2.47192383-16.06750489zM623.23657227 519.02628581v-24.71923828h30.89904785v-30.89904786h30.89904785v30.89904786h30.89904786v24.71923828h-30.89904786v30.89904786h-30.89904786v-30.89904786h-30.89904784z m20.39337158-86.51733398C617.67474365 386.16038005 568.23626709 355.2613322 512 355.2613322c-83.4274292 0-151.40533447 67.97790528-151.40533447 151.40533447s67.97790528 151.40533447 151.40533447 151.40533447c56.23626709 0 105.67474365-30.89904786 131.62994385-76.62963867l79.71954345 46.96655274c-42.02270508 72.92175293-121.12426758 122.3602295-211.3494873 122.36022948-134.71984864 0-244.10247803-109.3826294-244.10247803-244.10247802S377.28015136 262.56418864 512 262.56418864c90.84320068 0 169.94476318 50.05645752 211.96746826 123.59619141l-80.33752441 46.34857178zM827.17028809 519.02628581h-30.89904786v30.89904786h-24.71923828v-30.89904786h-37.07885742v-24.71923828h37.07885742v-30.89904786h24.71923828v30.89904786h30.89904785v24.71923828z" fill="#9C033A" p-id="3232"></path></svg>