<?xml version="1.0" standalone="no"?><!DOCTYPE svg PUBLIC "-//W3C//DTD SVG 1.1//EN" "http://www.w3.org/Graphics/SVG/1.1/DTD/svg11.dtd"><svg t="1694941207643" class="icon" viewBox="0 0 1024 1024" version="1.1" xmlns="http://www.w3.org/2000/svg" p-id="3993" xmlns:xlink="http://www.w3.org/1999/xlink" width="64" height="64"><path d="M581.10714248 303.58571416h80.51785752v82.28571416h40.69285752a176.46428584 176.46428584 0 0 0 55.9285708-9.38571416c8.74285752-2.98928584 18.54642833-7.07142833 27.16071416-12.27857168-11.34642832-14.85-17.16428584-33.58928584-18.86785664-52.03928496-2.31428584-25.10357168 2.76428584-57.79285752 19.76785664-77.46428584l8.45357168-9.7714292 10.06071416 8.1c25.39285752 20.41071416 46.73571416 48.88928584 50.4964292 81.38571504 30.56785752-9 66.47142833-6.87857167 93.40714248 8.6785708l11.025 6.36428584-5.78571416 11.37857168c-22.82142832 44.45357167-70.425 58.21071416-117 55.8-69.68571416 173.57142832-221.4 255.72857168-405.32142832 255.72857168-95.04642832 0-182.25-35.55-231.87857168-119.86071504l-0.83571417-1.38214248-7.23214335-14.72142832c-16.77857167-37.09285752-22.33928584-77.75357168-18.5785708-118.38214336l1.15714248-12.18214248h68.81785752v-82.28571416h80.48571415V223.13214248h160.97142833V142.61428584h96.58928584v160.97142832" fill="#364548" p-id="3994"></path><path d="M841.88214248 334.025c5.4-41.94642832-25.97142832-74.89285752-45.45-90.54642832-22.43571416 25.93928584-25.90714248 93.92142832 9.28928584 122.5285708-19.63928584 17.45357168-61.03928584 33.26785752-103.4035708 33.26785752H186.48928584c-4.11428584 44.22857168 3.66428584 84.95357167 21.375 119.82857168l5.88214249 10.73571416c3.72857168 6.3 7.77857167 12.375 12.15 18.25714249 21.21428584 1.35 40.75714248 1.8 58.66071415 1.41428583 35.16428584-0.77142833 63.83571416-4.91785752 85.5964292-12.43928583a6.20357168 6.20357168 0 0 1 4.05 11.7c-2.89285752 0.99642833-5.91428584 1.92857168-9 2.82857167h-0.03214335a269.06785752 269.06785752 0 0 1-59.14285665 9.64285752c1.38214248 0-1.47857167 0.19285752-1.47857168 0.19285664-0.80357168 0.06428584-1.83214248 0.19285752-2.63571416 0.225-9.32142833 0.51428584-19.38214248 0.64285752-29.66785751 0.64285752-11.25 0-22.33928584-0.225-34.71428585-0.86785752l-0.32142832 0.225c42.975 48.31071416 110.18571416 77.27142833 194.43214336 77.27142832 178.26428584 0 329.46428584-79.03928584 396.45-256.43571416 47.50714248 4.85357168 93.15-7.23214248 113.91428496-47.79642832-33.10714248-19.09285752-75.63214248-12.98571416-100.125-0.675" fill="#22A0C8" p-id="3995"></path><path d="M841.88214248 334.025c5.4-41.94642832-25.97142832-74.89285752-45.45-90.54642832-22.43571416 25.93928584-25.90714248 93.92142832 9.28928584 122.5285708-19.63928584 17.45357168-61.03928584 33.26785752-103.4035708 33.26785752H217.05714248c-2.12142833 67.725 23.01428584 119.15357168 67.5 150.23571416 35.16428584-0.77142833 63.83571416-4.91785752 85.5964292-12.43928584a6.20357168 6.20357168 0 0 1 4.05 11.7c-2.89285752 0.99642833-5.91428584 1.92857168-9 2.82857168h-0.03214335a282.92142833 282.92142833 0 0 1-60.75 10.06071416l-0.57857081-0.54642832c60.68571416 31.11428584 148.66071416 31.01785752 249.525-7.71428584 113.07857167-43.45714248 218.31428584-126.25714248 291.76071416-220.91785752a88.81071416 88.81071416 0 0 0-3.21428584 1.54285752" fill="#37B1D9" p-id="3996"></path><path d="M187.45357168 453.01785752c3.21428584 23.68928584 10.15714248 45.86785752 20.41071416 66.08571416l5.88214249 10.73571416c3.72857168 6.3 7.77857167 12.375 12.15 18.25714248 21.21428584 1.35 40.78928584 1.8 58.66071415 1.41428584 35.16428584-0.77142833 63.83571416-4.91785752 85.5964292-12.43928584a6.20357168 6.20357168 0 0 1 4.05 11.7c-2.89285752 0.99642833-5.91428584 1.92857168-9 2.82857168h-0.03214336a282.98571416 282.98571416 0 0 1-60.62142832 9.83571416l-3.05357168 0.12857168c-9.32142833 0.51428584-19.28571416 0.83571416-29.57142832 0.83571416-11.25 0-22.75714248-0.225-35.13214248-0.83571416 42.975 48.27857168 110.60357167 77.36785752 194.85 77.36785664 152.61428584 0 285.39642832-57.92142832 362.475-185.91428496H187.45357168" fill="#1B81A5" p-id="3997"></path><path d="M181.686857 444.891429c10.386286 47.323429 35.328 84.48 71.533714 109.787428 40.009143-0.877714 72.630857-5.595429 97.389715-14.153143a7.058286 7.058286 0 0 1 4.608 13.312c-3.291429 1.133714-6.729143 2.194286-10.24 3.218286h-0.036572a326.802286 326.802286 0 0 1-69.485714 11.190857c69.046857 35.401143 168.850286 34.925714 283.611429-9.142857 69.412571-26.697143 136.228571-66.413714 196.169142-114.212571H181.686857" fill="#1D91B4" p-id="3998"></path><path d="M256.49642832 316.98928584h69.75v69.75h-69.75v-69.75z m5.81785752 5.81785664h5.49642832v58.11428584h-5.46428584V322.80714248z m10.35 0h5.72142832v58.11428584h-5.72142832V322.80714248z m10.575 0h5.72142832v58.11428584h-5.72142832V322.80714248z m10.575 0h5.72142832v58.11428584h-5.72142832V322.80714248z m10.575 0h5.72142832v58.11428584H304.35714248V322.80714248z m10.54285664 0h5.52857168v58.11428584h-5.52857168V322.80714248z m22.05-86.3035708h69.75V306.28571416h-69.75V236.53571416z m5.81785752 5.81785664h5.49642832v58.11428584h-5.46428584V242.32142832z m10.35 0h5.72142832v58.11428584h-5.72142832V242.32142832z m10.575 0h5.72142832v58.11428584h-5.72142832V242.32142832z m10.575 0h5.72142832v58.11428584h-5.72142832V242.32142832z m10.575 0h5.72142832v58.11428584h-5.72142832V242.32142832z m10.54285752 0h5.5285708v58.11428584h-5.5285708V242.32142832z" fill="#23A3C2" p-id="3999"></path><path d="M336.98214248 316.98928584h69.75v69.75h-69.75v-69.75z m5.81785752 5.81785664h5.49642833v58.11428584h-5.46428585V322.80714248z m10.35 0h5.72142833v58.11428584h-5.72142833V322.80714248z m10.575 0h5.72142833v58.11428584h-5.72142833V322.80714248z m10.575 0h5.72142833v58.11428584h-5.72142833V322.80714248z m10.575 0h5.72142833v58.11428584h-5.72142833V322.80714248z m10.54285752 0h5.52857081v58.11428584h-5.52857081V322.80714248z" fill="#34BBDE" p-id="4000"></path><path d="M417.5 316.98928584h69.75v69.75h-69.75v-69.75z m5.78571416 5.81785664h5.49642832v58.11428584h-5.46428496V322.80714248z m10.35 0h5.72142832v58.11428584h-5.72142832V322.80714248z m10.575 0h5.72142832v58.11428584h-5.72142832V322.80714248z m10.575 0h5.72142832v58.11428584h-5.72142832V322.80714248z m10.575 0h5.72142832v58.11428584h-5.72142832V322.80714248z m10.54285752 0h5.5285708v58.11428584h-5.5285708V322.80714248z" fill="#23A3C2" p-id="4001"></path><path d="M417.5 236.53571416h69.75V306.28571416h-69.75V236.53571416z m5.78571416 5.78571416h5.49642832v58.11428584h-5.46428496V242.32142832z m10.35 0h5.72142832v58.11428584h-5.72142832V242.32142832z m10.575 0h5.72142832v58.11428584h-5.72142832V242.32142832z m10.575 0h5.72142832v58.11428584h-5.72142832V242.32142832z m10.575 0h5.72142832v58.11428584h-5.72142832V242.32142832z m10.54285752 0h5.5285708v58.11428584h-5.5285708V242.32142832z m22.05 74.66785752h69.75v69.75h-69.75v-69.75z m5.81785664 5.81785664h5.4964292v58.11428584h-5.46428584V322.80714248z m10.35 0h5.7214292v58.11428584h-5.7214292V322.80714248z m10.575 0h5.7214292v58.11428584h-5.7214292V322.80714248z m10.575 0h5.7214292v58.11428584h-5.7214292V322.80714248z m10.575 0h5.7214292v58.11428584h-5.7214292V322.80714248z m10.54285752 0h5.52857168v58.11428584h-5.52857168V322.80714248z" fill="#34BBDE" p-id="4002"></path><path d="M497.95357168 236.53571416h69.75V306.28571416h-69.75000001V236.53571416z m5.81785664 5.78571416h5.4964292v58.11428584h-5.46428584V242.32142832z m10.35000001 0h5.72142919v58.11428584h-5.7214292V242.32142832z m10.57499999 0h5.7214292v58.11428584h-5.7214292V242.32142832z m10.575 0h5.7214292v58.11428584h-5.7214292V242.32142832z m10.575 0h5.7214292v58.11428584h-5.7214292V242.32142832z m10.54285752 0h5.52857168v58.11428584h-5.52857168V242.32142832z" fill="#23A3C2" p-id="4003"></path><path d="M497.95357168 156.01785752h69.75v69.75h-69.75000001v-69.75z m5.81785664 5.78571416h5.4964292v58.1785708h-5.46428584v-58.1785708z m10.35000001 0h5.72142919v58.1785708h-5.7214292v-58.1785708z m10.57499999 0h5.7214292v58.1785708h-5.7214292v-58.1785708z m10.575 0h5.7214292v58.1785708h-5.7214292v-58.1785708z m10.575 0h5.7214292v58.1785708h-5.7214292v-58.1785708z m10.54285752 0h5.52857168v58.1785708h-5.52857168v-58.1785708z" fill="#34BBDE" p-id="4004"></path><path d="M578.43928584 316.98928584h69.75v69.75h-69.75v-69.75z m5.81785664 5.81785664h5.4964292v58.11428584h-5.46428584V322.80714248h-0.03214336z m10.35 0h5.7214292v58.11428584h-5.7214292V322.80714248z m10.575 0h5.7214292v58.11428584H605.21428584V322.80714248z m10.575 0h5.7214292v58.11428584h-5.7214292V322.80714248z m10.575 0h5.7214292v58.11428584h-5.7214292V322.80714248z m10.54285752 0h5.52857168v58.11428584h-5.52857168V322.80714248z" fill="#23A3C2" p-id="4005"></path><path d="M402.39285752 499.85a19.25357168 19.25357168 0 1 1 0.51428496 38.475 19.25357168 19.25357168 0 0 1-0.51428496-38.475" fill="#D3ECEC" p-id="4006"></path><path d="M402.39285752 505.31428584c1.73571416 0 3.43928584 0.32142832 4.98214248 0.93214248a5.625 5.625 0 1 0 7.71428584 7.55357168 13.78928584 13.78928584 0 1 1-12.69642832-8.48571416M62 459.99285752h895.17857168c-19.47857168-4.98214248-61.65-11.63571416-54.70714336-37.18928584-35.42142832 41.01428584-120.92142833 28.76785752-142.48928584 8.55-24.01071416 34.84285752-163.86428584 21.6-173.6035708-5.56071416-30.11785752 35.35714248-123.42857168 35.35714248-153.5464292 0-9.77142832 27.16071416-149.59285752 40.40357168-173.63571416 5.56071416-21.53571416 20.21785752-107.03571416 32.46428584-142.48928584-8.55C123.71428584 448.35714248 81.51071416 455.01071416 62 459.92857168" fill="#364548" p-id="4007"></path><path d="M453.53214248 638.51428584c-47.66785752-22.59642833-73.8-53.35714248-88.39285664-86.91428584-17.67857168 5.04642832-38.95714248 8.29285752-63.675 9.64285752-9.32142833 0.54642832-19.125 0.80357168-29.41071416 0.8035708-11.82857168 0-24.33214248-0.32142832-37.4464292-1.0285708 43.71428584 43.68214248 97.45714248 77.30357168 197.03571504 77.91428496 7.32857168 0 14.625-0.12857168 21.88928496-0.41785664" fill="#BDD9D7" p-id="4008"></path><path d="M365.092571 592.274286a190.061714 190.061714 0 0 1-20.114285-35.218286c-20.187429 5.741714-44.397714 9.435429-72.521143 10.971429 19.309714 10.532571 46.957714 20.260571 92.635428 24.246857" fill="#D3ECEC" p-id="4009"></path><path d="M806.84642833 743.04285752c13.43571416 6.65357168 24.33214248 16.55357168 31.85357167 29.57142832l1.35 2.31428583c5.46428584 9.45-1.60714248 17.67857168-8.90357168 23.33571417-8.48571416 6.525-17.03571416 14.4-25.13571416 21.40714248l-54.25714248 46.92857168c9.93214248 3.43928584 21.21428584 2.95714248 31.43571416 1.18928584 5.20714248-2.25 18.51428584-8.03571416 23.43214248-7.2l0.73928584 0.16071416 0.70714336 0.32142832a15.39642833 15.39642833 0 0 1 7.39285664 6.55714336c3.53571416 7.13571416 1.83214248 14.30357168-5.14285664 18.3535708l-2.3464292 1.35c-25.875 14.94642833-53.38928584 12.85714248-79.19999999-1.09285664a73.41428584 73.41428584 0 0 1-28.70357081-28.60714336l-1.60714336-2.82857081c-16.65-28.76785752-14.4-59.01428584 4.33928584-86.36785751 6.46071416-9.45 14.91428584-16.74642832 24.78214248-22.5l3.76071504-2.12142832c24.36428584-14.07857168 50.46428584-13.11428584 75.5035708-0.77142832z m-303.01071417-8.93571504c14.52857168 0 27.93214248 4.11428584 39.92142832 12.34285752l0.96428585 0.64285752 0.64285751 1.06071415c1.28571416 2.15357168 2.41071416 4.62857168 2.41071416 7.16785665v2.7c0 6.975-5.20714248 10.70357168-11.475 11.925l-0.54642832 0.0964292h-1.60714335c-4.05 0-13.30714248-4.21071416-16.93928585-5.91428585-4.11428584-1.92857168-11.82857168-2.57142833-16.29642832-2.76428583-22.75714248-0.83571416-39.24642832 11.98928584-48.92142832 32.07857168a49.88571416 49.88571416 0 0 0-4.88571416 21.9535708c0 23.36785752 12.27857168 39.72857168 33.10714248 49.69285752 7.65 3.63214248 17.48571416 4.33928584 25.81071417 4.33928583 7.29642832 0 17.67857168-4.5 24.13928583-7.58571415l1.125-0.51428585h5.04642832l0.57857168 0.09642833c6.20357168 1.28571416 10.86428584 5.23928584 10.86428584 11.89285752v2.7c0 16.61785752-30.34285752 20.41071416-41.91428584 21.21428496-40.88571416 2.82857168-71.42142832-19.60714248-83.08928583-58.59642832a70.61785752 70.61785752 0 0 1-2.925-20.53928584v-5.4c0-29.57142832 14.68928584-53.00357168 40.05-68.0785708a74.66785752 74.66785752 0 0 1 38.53928583-10.51071504h5.4z m-291.18214248-50.33571416c7.84285752 0 12.53571416 6.10714248 12.53571416 13.62857168v121.275c0 29.57142832-14.59285752 53.06785752-40.05 68.07857167a75.21428584 75.21428584 0 0 1-38.53928584 10.51071417h-5.4c-29.57142832 0-53.03571416-14.625-68.07857167-40.08214336a75.02142833 75.02142833 0 0 1-10.51071417-38.50714248v-5.4c0-29.57142832 14.625-53.1 40.05-68.14285752a74.95714248 74.95714248 0 0 1 38.57142832-10.4785708h5.36785752c20.025 0 36.99642832 7.74642832 51.33214248 20.34642832v-57.6c0-7.55357167 4.725-13.62857168 12.53571504-13.62857168h2.18571416z m110.95714248 50.88214335c31.59642832 0 55.60714248 15.33214248 70.84285752 42.91071417 6.10714248 11.025 9.35357167 23.07857168 9.3535708 35.67857168v5.43214248c0 29.57142832-14.56071416 53.1-40.05 68.07857167a75.40714248 75.40714248 0 0 1-38.53928496 10.51071417h-5.4c-29.57142832 0-53.06785752-14.625-68.07857168-40.08214336a75.02142833 75.02142833 0 0 1-10.51071416-38.50714248v-5.4c0-29.57142832 14.65714248-53.03571416 40.05-68.14285752a74.63571416 74.63571416 0 0 1 38.57142832-10.4785708h3.76071416z m269.48571416-50.33571415c7.84285752 0 12.56785752 6.04285752 12.56785752 13.6285708v84.63214336c10.60714248-10.60714248 21.21428584-21.21428584 31.98214249-31.62857168 2.98928584-2.89285752 14.33571416-15.23571416 18.80357167-15.23571416h4.88571416l0.54642832 0.12857168c6.23571416 1.28571416 10.89642833 5.23928584 10.8964292 11.89285664v2.73214336c0 4.56428584-5.33571416 9.86785752-8.29285752 12.98571416-6.26785752 6.62142832-12.85714248 13.05-19.28571416 19.575l-32.94642832 33.4285708c14.20714248 14.23928584 28.38214248 28.44642832 42.4285708 42.78214336 3.92142832 3.95357168 7.77857167 7.93928584 11.63571504 11.95714248 1.35 1.41428584 3.34285752 3.21428584 4.5 5.175a11.18571416 11.18571416 0 0 1 1.96071416 6.1714292v2.8285708l-0.16071416 0.64285752c-1.54285752 6.20357168-5.46428584 11.25-12.375 11.25h-2.18571504c-4.5 0-9.57857167-5.14285752-12.69642832-8.03571416-6.36428584-6.01071416-12.53571416-12.31071416-18.73928583-18.45l-20.95714249-20.5714292v32.85c0 7.58571416-4.725 13.66071416-12.53571416 13.66071504h-2.15357168c-7.84285752 0-12.56785752-6.10714248-12.56785752-13.66071504v-185.14285664c0-7.55357167 4.725-13.59642832 12.53571504-13.59642832h2.15357081z m355.21071416 51.4285708c8.19642832 0 13.66071416 5.46428584 13.66071504 13.62857168 0 11.28214248-10.8 14.175-20.15357168 14.175-12.21428584 0-23.94642832 7.39285752-32.36785751 15.75-10.54285752 10.38214248-15.13928584 23.65714248-15.13928585 38.25v66.05357168c0 7.58571416-4.725 13.66071416-12.56785664 13.66071416h-2.15357168c-7.84285752 0-12.56785752-6.10714248-12.56785664-13.66071416V813.82142832c0-26.80714248 13.05-48.69642832 34.81071416-64.06071416a75.02142833 75.02142833 0 0 1 43.7785708-13.98214249h2.7z m-804.40714248 26.1964292c-22.82142832 0-39.27857168 11.57142832-49.17857168 32.04642832-3.31071416 6.94285752-4.82142832 14.30357168-4.82142832 21.95357168 0 21.375 10.35 37.41428584 29.05714248 47.66785664 7.55357167 4.14642832 15.78214248 6.36428584 24.42857168 6.36428584 20.95714248 0 36.51428584-9.9 47.25-27.64285752 4.98214248-8.26071416 7.29642832-17.325 7.29642832-26.93571416 0-18.51428584-8.775-32.94642832-23.68928496-43.71428584a50.88214248 50.88214248 0 0 0-30.34285752-9.73928496z m178.61785752 0c-22.82142832 0-39.27857168 11.57142832-49.17857168 32.04642832a50.01428584 50.01428584 0 0 0-4.82142832 21.95357168c0 20.73214248 10.15714248 36 27.64285664 46.73571416 8.26071416 5.01428584 17.29285752 7.29642832 26.90357168 7.29642832 20.50714248 0 35.64642832-10.38214248 46.15714248-27.675 5.04642832-8.22857167 7.32857168-17.29285752 7.32857168-26.90357168 0-19.28571416-9.32142833-34.00714248-25.16785752-44.6785708a50.72142832 50.72142832 0 0 0-28.86428496-8.775z m419.65714248 7.13571416c-18.86785752 10.89642833-26.93571416 28.28571416-26.22857168 49.8535708 0.28928584 8.51785752 2.57142833 16.71428584 7.0714292 23.97857168 1.60714248 2.53928584 3.375 4.95 5.3035708 7.23214336 20.25-17.35714248 40.5-34.71428584 60.68571416-52.16785752 6.87857167-5.94642832 14.46428584-12.11785752 21.31071504-18.38571416-5.49642833-6.91071416-14.68928584-11.89285752-22.46785752-14.88214336-15.75-5.97857168-31.24285752-3.95357168-45.675 4.37142919z" fill="#364548" p-id="4010"></path></svg>