<?xml version="1.0" standalone="no"?><!DOCTYPE svg PUBLIC "-//W3C//DTD SVG 1.1//EN" "http://www.w3.org/Graphics/SVG/1.1/DTD/svg11.dtd"><svg t="1680365048519" class="icon" viewBox="0 0 1024 1024" version="1.1" xmlns="http://www.w3.org/2000/svg" p-id="3318" xmlns:xlink="http://www.w3.org/1999/xlink" width="32" height="32"><path d="M512 512m-448 0a448 448 0 1 0 896 0 448 448 0 1 0-896 0Z" fill="#3685F2" p-id="3319"></path><path d="M727.04 596.416c27.264 15.36 37.504 44.416 25.152 71.104a48.384 48.384 0 0 1-66.496 22.144c-24.704-13.568-32.256-43.712-18.24-73.6 3.328-7.04 7.68-13.696 11.072-20.736a263.68 263.68 0 0 0-45.44-298.304c-75.776-79.36-189.952-95.68-285.632-40.832-89.984 51.584-139.264 164.48-118.912 272.256 48.768 258.112 327.296 358.272 515.456 185.344 41.472-38.144 73.28-29.312 92.48 25.472 1.28 3.584 4.16 6.528 6.592 10.24 32.256-37.12 26.112-80.64-10.944-103.872a67.84 67.84 0 0 1-25.6-32.256c-16.384-45.12-59.904-58.688-97.024-24.96 7.936 3.584 12.928 5.376 17.536 8z" fill="#FFFFFF" p-id="3320"></path></svg>