<?xml version="1.0" standalone="no"?><!DOCTYPE svg PUBLIC "-//W3C//DTD SVG 1.1//EN" "http://www.w3.org/Graphics/SVG/1.1/DTD/svg11.dtd"><svg t="1680364992879" class="icon" viewBox="0 0 1024 1024" version="1.1" xmlns="http://www.w3.org/2000/svg" p-id="2816" width="32" height="32" xmlns:xlink="http://www.w3.org/1999/xlink"><path d="M157.4 157.4h711v711H157.4z" fill="#FFEA00" p-id="2817"></path><path d="M690.2 713.6h3.6s14.4-16.2 5.4-7.2c-3.6 1.8-5.4 5.4-9 7.2z m-252-424.8v1.8c0-1.8 1.8-1.8 0-1.8z m-154.8 82.8s0 1.8 0 0c0 1.8 0 1.8 0 0 0 1.8 0 1.8 0 0z m0 1.8c1.8 0 5.4-9 5.4-9s-1.8 3.6-5.4 9z m252 158.4c-86.4-75.6-113.4-142.2-95.4-241.2-5.4 10.8-14.4 25.2-19.8 36-21.6 52.2-39.6 70.2-23.4 129.6 36 144 151.2 194.4 295.2 156.6 34.2-9 45-18 72-37.8 7.2-5.4 12.6-9 18-14.4-27 10.8-147.6 59.4-246.6-28.8zM389.6 656c-86.4-75.6-124.2-183.6-106.2-282.6-5.4 10.8-14.4 25.2-19.8 36-21.6 52.2-28.8 111.6-12.6 171 36 144 183.6 230.4 327.6 194.4 34.2-9 64.8-23.4 93.6-43.2 7.2-5.4 14.4-10.8 19.8-16.2-27 3.6-199.8 32.4-302.4-59.4zM440 288.8c1.8 0 5.4-9 5.4-9s-3.6 3.6-5.4 9z m342 271.8c3.6-1.8 5.4-1.8 5.4-1.8s14.4-16.2 5.4-7.2c-3.6 1.8-7.2 5.4-10.8 9zM890 62H134C94.4 62 62 94.4 62 134v756c0 39.6 32.4 72 72 72h756c39.6 0 72-32.4 72-72V134c0-39.6-32.4-72-72-72z m18 810c0 19.8-16.2 36-36 36H152c-19.8 0-36-16.2-36-36V152c0-19.8 16.2-36 36-36h720c19.8 0 36 16.2 36 36v720z m-82.8-424.8c3.6-1.8 5.4-1.8 5.4-1.8s10.8-10.8 3.6-5.4c-3.6 1.8-7.2 3.6-9 7.2z m-174.6-23.4c-61.2-55.8-81-104.4-68.4-174.6-3.6 7.2-10.8 18-12.6 25.2-16.2 37.8-27 50.4-16.2 93.6 27 104.4 108 140.4 210.6 115.2 25.2-5.4 32.4-12.6 50.4-27l10.8-10.8c-21.6 10.8-104.4 41.4-174.6-21.6z m-68.4-176.4l3.6-7.2-3.6 7.2z m0 0s0 1.8 0 0c0 1.8 0 1.8 0 0 0 1.8 0 1.8 0 0z" fill="" p-id="2818"></path></svg>