<?xml version="1.0" standalone="no"?><!DOCTYPE svg PUBLIC "-//W3C//DTD SVG 1.1//EN" "http://www.w3.org/Graphics/SVG/1.1/DTD/svg11.dtd"><svg t="1680364918896" class="icon" viewBox="0 0 1024 1024" version="1.1" xmlns="http://www.w3.org/2000/svg" p-id="2816" width="32" height="32" xmlns:xlink="http://www.w3.org/1999/xlink"><path d="M796.8 701.54666667zM768 70.61333333H258.34666667c-103.25333333 0-187.73333333 84.48-187.73333334 187.73333334V768c0 103.25333333 84.48 187.73333333 187.73333334 187.73333333H768c103.25333333 0 187.73333333-84.48 187.73333333-187.73333333V258.34666667c0-103.25333333-84.48-187.73333333-187.73333333-187.73333334z m91.41333333 779.30666667c0 3.30666667-1.6 6.4-4.26666666 8.32-1.70666667 1.28-3.73333333 1.81333333-5.86666667 1.81333333-1.17333333 0-2.24-0.21333333-3.41333333-0.53333333-6.29333333-2.24-10.24-6.29333333-13.33333334-9.6-1.28-1.38666667-2.56-2.66666667-3.62666666-3.41333333-4.37333333-2.98666667-8.74666667-6.18666667-12.90666667-9.28-5.76-4.26666667-11.09333333-8.21333333-16.53333333-11.73333334-8.10666667-5.12-17.06666667-9.28-26.45333334-13.65333333-9.38666667-4.26666667-18.98666667-8.74666667-28.16-14.50666667 0 0-0.10666667 0-0.10666666-0.10666666-10.56-6.72-20.69333333-14.50666667-29.65333334-21.33333334-9.70666667-7.25333333-20.05333333-20.48-26.02666666-30.50666666-1.92-2.98666667-2.98666667-6.08-3.94666667-8.53333334-0.53333333-1.49333333-1.38666667-3.62666667-1.81333333-4.16-2.13333333-2.13333333-3.30666667-5.22666667-2.88-8.32 1.49333333-13.44 13.76-16.64 20.37333333-18.34666666 1.70666667-0.42666667 3.30666667-0.85333333 4.37333333-1.28 18.34666667-7.78666667 39.89333333-12.16 66.34666667-13.22666667-1.38666667-0.85333333-2.56-1.6-3.52-2.24-3.41333333-2.13333333-6.29333333-3.94666667-8.42666667-5.54666667-13.54666667-9.70666667-29.22666667-20.90666667-44.58666666-30.4-4.05333333-2.45333333-10.66666667-4.8-17.06666667-7.04-4.37333333-1.6-8.96-3.2-12.90666667-4.90666666-3.2-1.28-7.89333333-2.66666667-12.8-4.16-15.04-4.48-30.61333333-9.17333333-37.44-18.56-13.01333333-17.06666667-22.08-37.44-30.72-57.06666667-0.85333333-1.92-1.70666667-3.84-2.56-5.65333333-4.48-10.13333333-9.49333333-20.8-14.29333333-30.93333334-5.54666667-11.73333333-11.30666667-23.78666667-16.42666667-35.73333333-2.34666667-5.01333333-4.05333333-9.70666667-5.65333333-14.29333333-2.02666667-5.54666667-3.94666667-10.66666667-6.72-16-32.10666667-62.18666667-79.68-114.45333333-137.6-151.25333334-21.86666667-13.76-42.34666667-23.57333333-62.72-30.18666666-6.08-1.81333333-13.44-2.13333333-21.12-2.45333334-6.93333333-0.32-14.08-0.64-21.22666667-2.02666666h-8.53333333c-0.96 0-1.81333333-0.10666667-2.77333333-0.42666667-7.78666667-2.13333333-13.65333333-7.57333333-18.88-12.26666667-1.92-1.81333333-3.84-3.41333333-5.44-4.58666666-13.01333333-8.85333333-26.02666667-14.82666667-42.77333334-21.54666667-0.10666667-0.10666667-0.32-0.10666667-0.42666666-0.21333333-7.36-3.41333333-15.57333333-5.33333333-18.34666667-5.01333334-0.85333333 0.64-1.81333333 1.06666667-2.77333333 1.38666667-0.21333333 0.64-0.53333333 1.17333333-0.85333334 1.70666667-0.10666667 0.42666667-0.32 2.66666667 2.45333334 8.96 3.94666667 8.42666667 9.17333333 14.82666667 14.61333333 21.65333333 3.09333333 3.73333333 6.18666667 7.68 9.28 12.16 1.38666667 1.92 2.88 4.05333333 4.37333333 6.08 6.72 9.38666667 14.4 19.94666667 19.2 30.50666667 6.50666667 14.08 11.09333333 28.90666667 15.57333334 43.30666666 3.94666667 12.58666667 7.68 24.53333333 12.58666666 35.94666667 3.30666667 7.89333333 9.06666667 18.02666667 15.25333334 27.2 1.28 1.70666667 3.30666667 3.62666667 5.44 5.65333333 4.37333333 4.16 9.70666667 9.17333333 12.37333333 16.64 5.33333333 10.88-0.64 28.58666667-8.42666667 48.74666667-1.06666667 2.88-2.02666667 5.33333333-2.56 6.93333333-10.77333333 34.24-9.17333333 83.30666667 3.73333334 114.13333334 0.42666667 1.06666667 0.96 2.34666667 1.49333333 3.52 2.66666667 6.29333333 4.90666667 11.30666667 7.46666667 15.04 0-0.32 0.10666667-0.64 0.10666666-0.96 2.24-20.05333333 4.26666667-38.93333333 11.62666667-55.78666667 3.84-9.38666667 9.92-16.74666667 15.36-23.25333333 2.66666667-3.2 5.22666667-6.29333333 7.36-9.38666667 2.98666667-4.48 8.96-5.76 13.54666667-2.98666667 6.4 3.84 8.21333333 10.77333333 9.6 15.78666667 0.53333333 1.81333333 0.96 3.62666667 1.49333333 4.69333333l0.32 0.64 1.49333333 3.52c5.54666667 13.12 11.2 26.77333333 17.70666667 39.36 15.89333333 30.93333333 32.64 58.24 49.81333333 81.17333334 0.10666667 0.10666667 0.10666667 0.21333333 0.21333334 0.21333333 5.12 7.36 13.01333333 16.42666667 22.18666666 25.6 0.85333333 0.64 1.81333333 1.38666667 2.77333334 2.13333333 2.02666667 1.49333333 4.37333333 3.2 6.61333333 5.65333334 3.09333333 1.70666667 5.12 5.01333333 5.12 8.74666666v1.38666667c0 3.30666667-1.6 6.4-4.37333333 8.32-2.66666667 1.92-6.18666667 2.34666667-9.28 1.17333333-10.77333333-3.94666667-18.56-12.05333333-25.49333334-19.09333333-3.52-3.62666667-6.82666667-7.04-10.13333333-9.6-9.49333333-7.14666667-42.02666667-33.06666667-61.33333333-63.46666667-0.21333333-0.42666667-0.42666667-0.74666667-0.64-1.17333333l-5.44-11.52c-0.10666667 0.74666667-0.21333333 1.6-0.32 2.34666667-2.13333333 17.38666667-4.58666667 37.12-24.64 45.12-9.38666667 3.84-23.89333333 5.76-39.89333334-7.04-9.06666667-7.25333333-15.78666667-16.96-20.05333333-23.68l-0.10666667-0.10666667c-12.05333333-19.73333333-20.16-46.50666667-22.82666666-75.52-2.66666667-29.22666667 0.42666667-59.52 8.64-85.33333333 1.06666667-3.41333333 1.92-7.25333333 2.77333333-11.30666667 1.49333333-6.93333333 2.98666667-14.08 6.18666667-20.48-0.53333333-0.64-1.38666667-1.49333333-2.66666667-2.66666667-1.81333333-1.6-3.84-3.41333333-5.65333333-5.97333333-6.93333333-9.38666667-12.69333333-20.05333333-17.49333334-29.33333333-7.57333333-14.93333333-13.44-31.57333333-18.98666666-47.68-1.70666667-4.90666667-3.30666667-9.6-5.01333334-14.29333334-1.70666667-4.48-2.88-8.85333333-3.94666666-13.01333333-0.96-3.73333333-1.81333333-7.36-3.2-10.56-3.84-8.21333333-10.34666667-16.85333333-16.74666667-25.06666667-1.81333333-2.34666667-3.52-4.69333333-5.22666667-6.93333333l-0.21333333-0.21333333c-1.6-2.24-3.73333333-5.01333333-6.29333333-8.21333334-13.33333333-16.74666667-35.62666667-44.90666667-23.25333334-74.98666666 5.54666667-13.76 15.04-22.82666667 28.16-26.98666667 14.4-4.58666667 32.74666667-2.77333333 54.61333334 5.33333333 18.34666667 6.82666667 35.09333333 16.74666667 43.41333333 21.97333334 3.30666667 2.13333333 6.4 4.90666667 9.38666667 7.57333333 2.88 2.56 5.97333333 5.33333333 8.64 6.93333333 5.22666667 0.21333333 10.45333333 0.53333333 15.46666666 0.85333334 5.33333333 0.32 10.88 0.64 16.21333334 0.85333333 0.64 0 1.28 0.10666667 1.92 0.21333333 1.81333333 0.42666667 3.73333333 0.85333333 5.54666666 1.28 19.84 4.58666667 38.50666667 8.96 55.04 18.34666667 0 0 0.10666667 0 0.10666667 0.10666667 82.66666667 48.64 132.69333333 97.17333333 178.66666667 173.12 6.72 11.09333333 11.30666667 22.72 15.78666666 33.92 2.45333333 6.18666667 5.01333333 12.58666667 7.78666667 18.77333333 0 0.10666667 0.10666667 0.21333333 0.10666667 0.21333333 12.8 29.86666667 25.17333333 56.21333333 36.8 78.18666667 0 0.10666667 0.10666667 0.10666667 0.10666666 0.21333333 1.70666667 3.41333333 3.30666667 6.93333333 4.8 10.34666667 3.84 8.53333333 7.46666667 16.53333333 12.48 22.72l0.32 0.32c1.06666667 0.85333333 4.48 1.92 6.50666667 2.66666667 2.56 0.85333333 5.12 1.70666667 7.57333333 2.98666666 5.65333333 2.98666667 11.73333333 5.54666667 18.13333334 8.32 10.13333333 4.37333333 20.58666667 8.85333333 29.76 14.82666667 24.53333333 15.36 50.13333333 34.45333333 75.84 56.74666667l0.10666666 0.10666666c5.33333333 4.8 9.6 10.34666667 13.65333334 15.78666667 3.2 4.16 6.18666667 8.10666667 9.38666666 11.41333333 1.92 1.92 2.98666667 4.48 2.98666667 7.14666667v4.16c0 4.48-2.88 8.42666667-7.14666667 9.70666667l-2.66666666 0.85333333c-6.4 1.92-13.01333333 3.94666667-19.62666667 5.65333333-8.53333333 2.24-16.42666667 2.98666667-24.10666667 3.84-7.14666667 0.74666667-13.97333333 1.49333333-20.90666666 3.30666667l-2.45333334 0.74666667c-4.16 1.17333333-8.74666667 2.56-13.44 3.73333333 7.25333333 6.18666667 18.02666667 12.48 26.02666667 17.06666667 5.44 3.2 10.56 6.08 14.72 8.96 0.10666667 0 0.10666667 0.10666667 0.21333333 0.10666666 19.30666667 13.86666667 35.62666667 29.86666667 48.74666667 47.36 2.02666667 2.02666667 3.94666667 3.84 6.08 5.86666667 2.24 2.13333333 4.58666667 4.37333333 6.93333333 6.72 0.42666667 0.42666667 0.85333333 0.96 1.17333334 1.38666667 2.13333333 3.09333333 3.41333333 6.29333333 4.58666666 9.17333333 0.74666667 2.02666667 1.6 3.94666667 2.34666667 4.90666667 1.38666667 1.81333333 2.13333333 3.94666667 2.13333333 6.29333333v0.96z m-496.42666666-522.66666667c0 13.54666667-4.37333333 23.78666667-12.90666667 30.29333334l-0.42666667 0.42666666c-1.92 1.92-4.48 2.98666667-7.14666666 2.98666667-0.53333333 0-1.06666667 0-1.6-0.10666667-3.2-0.53333333-5.97333333-2.56-7.46666667-5.44-1.81333333-3.62666667-3.52-7.14666667-5.12-10.66666666-1.6-3.41333333-3.2-6.93333333-4.90666667-10.34666667-1.38666667-1.81333333-2.98666667-3.62666667-4.69333333-5.65333333-2.66666667-2.98666667-5.65333333-6.29333333-8.10666667-10.24-2.34666667-1.81333333-3.94666667-4.8-3.94666666-8v-0.96c0-4.69333333 3.2-8.74666667 7.68-9.81333334 5.44-1.38666667 11.73333333-2.56 21.01333333-2.56 2.66666667 0 5.22666667 1.06666667 7.14666667 2.98666667 0.74666667 0.74666667 2.13333333 1.70666667 3.62666666 2.66666667 3.2 2.24 7.14666667 4.90666667 9.92 9.28 1.49333333 2.13333333 2.34666667 4.05333333 3.09333334 5.54666666 0.64 1.49333333 1.06666667 2.24 1.6 2.88 1.38666667 1.92 2.24 4.26666667 2.24 6.72z" fill="#5cb1ff" p-id="2817"></path></svg>