<?xml version="1.0" standalone="no"?><!DOCTYPE svg PUBLIC "-//W3C//DTD SVG 1.1//EN" "http://www.w3.org/Graphics/SVG/1.1/DTD/svg11.dtd"><svg t="1680365413835" class="icon" viewBox="0 0 1024 1024" version="1.1" xmlns="http://www.w3.org/2000/svg" p-id="3069" xmlns:xlink="http://www.w3.org/1999/xlink" width="32" height="32"><path d="M512 70.03571429L129.1484375 291.01785714v441.96428572L512 953.96428571l382.8515625-220.98214285V291.01785714L512 70.03571429z m220.98214286 611.015625c0 25.96540179-23.78320312 47.51116071-56.32282366 47.51116071-23.23074777 0-49.74860491-9.39174107-66.32226563-29.83258929l-220.98214286-262.99637276v245.29017857c0 26.54547991-20.99330357 47.51116071-46.93108258 47.51116071H339.63392857c-26.54547991 0-47.51116071-22.09821429-47.51116071-47.51116071V342.94866071c0-25.96540179 23.203125-47.51116071 55.24553571-47.51116071 23.78320312 0 50.82589286 9.39174107 67.39955357 29.83258929l219.87723215 262.99637276V342.94866071c0-26.54547991 22.09821429-47.51116071 47.51116071-47.51116071h2.76227679c26.51785714 0 47.51116071 22.09821429 47.51116071 47.51116071v338.10267858H732.98214286z" fill="#269539" p-id="3070"></path></svg>