<?xml version="1.0" standalone="no"?><!DOCTYPE svg PUBLIC "-//W3C//DTD SVG 1.1//EN" "http://www.w3.org/Graphics/SVG/1.1/DTD/svg11.dtd"><svg t="1680428669885" class="icon" viewBox="0 0 1024 1024" version="1.1" xmlns="http://www.w3.org/2000/svg" p-id="3353" xmlns:xlink="http://www.w3.org/1999/xlink" width="32" height="32"><path d="M-194.9905014-194.9905014h1413.9810028v1413.9810028H-194.9905014z" fill="#FFFFFF" fill-opacity=".01" p-id="3354"></path><path d="M123.15522423 123.15522423m70.69905014 0l636.29145126 0q70.69905013 0 70.69905014 70.69905014l0 636.29145126q0 70.69905013-70.69905014 70.69905014l-636.29145126 0q-70.69905013 0-70.69905014-70.69905014l0-636.29145126q0-70.69905013 70.69905014-70.69905014Z" fill="#D1403F" p-id="3355"></path><path d="M352.92713718 405.9514248v176.74762533h-35.34952506v-141.39810026h-35.34952507v141.39810026h-106.04857521v-176.74762533h176.74762534zM529.67476253 441.30094987h-35.34952506v106.0485752h35.34952506v-106.0485752z m-70.69905014 141.39810026v35.34952507h-70.69905014v-212.0971504h176.74762536v176.74762533h-106.04857522zM847.82048816 405.9514248v176.74762533h-35.34952507v-141.39810026h-35.34952506v141.39810026h-35.34952508v-141.39810026h-35.34952507v141.39810026h-106.0485752v-176.74762533h247.44667548z" fill="#FFFFFF" p-id="3356"></path></svg>