<?xml version="1.0" standalone="no"?><!DOCTYPE svg PUBLIC "-//W3C//DTD SVG 1.1//EN" "http://www.w3.org/Graphics/SVG/1.1/DTD/svg11.dtd"><svg t="1680367946386" class="icon" viewBox="0 0 1024 1024" version="1.1" xmlns="http://www.w3.org/2000/svg" p-id="3262" xmlns:xlink="http://www.w3.org/1999/xlink" width="32" height="32"><path d="M715.40401786 506.66666667c0 56.50111608-45.20089286 101.70200893-101.70200894 101.70200893H410.29799107c-56.50111608 0-101.70200893-45.20089286-101.70200893-101.70200893s45.20089286-101.70200893 101.70200894-101.70200893h203.40401784c56.50111608 0 101.70200893 45.20089286 101.70200894 101.70200893z" fill="#d22227" p-id="3263"></path><path d="M135.32589286 129.99255953v753.34821428h753.34821428V129.99255953H135.32589286z m598.91183036 497.20982143c-32.01729911 32.01729911-75.33482142 48.96763393-120.53571429 48.96763393H410.29799107c-94.16852679 0-169.50334822-75.33482142-169.50334822-169.50334822s75.33482142-169.50334822 169.50334823-169.50334822h203.40401784c94.16852679 0 169.50334822 75.33482142 169.50334823 169.50334822 0 45.20089286-16.95033482 88.51841518-48.96763394 120.53571429z" fill="#d22227" p-id="3264"></path></svg>