<?xml version="1.0" standalone="no"?><!DOCTYPE svg PUBLIC "-//W3C//DTD SVG 1.1//EN" "http://www.w3.org/Graphics/SVG/1.1/DTD/svg11.dtd"><svg t="1680369507898" class="icon" viewBox="0 0 1050 1024" version="1.1" xmlns="http://www.w3.org/2000/svg" p-id="3291" width="32.8125" height="32" xmlns:xlink="http://www.w3.org/1999/xlink"><path d="M277.56994685 129.90790344h499.01270583C852.2394179 129.90790344 913.40871725 191.07720279 913.40871725 266.73396802v479.69608514c0 75.65676522-61.16929935 136.82606458-136.82606458 136.82606457h-499.01270583C201.91318162 883.25611773 140.74388227 822.08681838 140.74388227 746.43005315v-479.69608514C140.74388227 191.07720279 201.91318162 129.90790344 277.56994685 129.90790344z" fill="#00005B" p-id="3292"></path><path d="M324.25178031 658.21748484V326.9374367c0-2.25360586 0.9658314-3.54138035 3.21943727-3.54138108 5.47304241 0 10.62414175 0 18.02884623-0.32194307 7.72664828-0.3219438 15.77524036-0.3219438 24.46771929-0.64388761 8.69247967-0.3219438 18.02884622-0.3219438 28.00910036-0.64388758 9.98025414-0.3219438 19.6385645-0.3219438 29.29687485-0.3219438 26.39938211 0 48.29155246 3.21943655 66.32039867 9.98025414 16.09718415 5.47304241 30.9065931 14.48746588 43.14045313 26.39938211 10.30219794 10.30219794 18.35079002 22.85800104 23.50188863 36.70158003 4.82915554 13.52163449 7.40470449 27.36521277 7.4047052 41.85267793 0 27.68715657-6.43887381 50.54515834-19.31662142 68.57400456-12.87774762 18.02884622-30.9065931 31.5504807-51.83293206 39.27712897-21.89217035 8.04859208-46.0379466 10.94608481-72.43732869 10.94608481-7.72664828 0-12.87774762 0-16.09718415-0.32194306s-7.72664828-0.3219438-13.8435783-0.32194381V657.89554105c0.3219438 2.25360586-1.28777447 4.18526793-3.54138032 4.507211H328.11510445c-2.57554966 0-3.86332413-1.28777447-3.86332414-4.18526721z m70.18372282-272.68629847V493.70426297c4.50721174 0.3219438 8.69247967 0.64388761 12.55580381 0.64388759H424.05432177c12.5558038 0 25.11160691-1.93166207 37.02352311-5.7949862 10.30219794-2.89749347 19.31662069-9.01442275 26.3993821-17.06301482 6.76081761-8.04859208 9.98025414-18.99467689 9.98025414-33.1601997 0.3219438-9.98025414-2.25360586-19.96050829-7.40470447-28.65298724-5.47304241-8.37053587-13.19969069-14.80940968-22.53605797-18.35079002-11.91191622-4.82915554-24.7896631-6.76081761-37.9893545-6.43887382-8.37053587 0-15.77524036 0-21.89217038 0.32194381-6.43887381-0.3219438-10.94608481 0-13.19969067 0.3219438zM612.71331914 404.20392018h56.34014453c3.21943655 0 5.79498621 2.25360586 6.76081687 5.15109863 0.9658314 2.57554966 1.60971826 5.15109861 1.93166208 8.04859206 0.64388761 3.21943655 1.28777447 6.76081761 1.60971826 9.98025415 0.3219438 3.54138035 0.64388761 7.40470449 0.64388762 11.58997241 9.65831035-11.26802861 21.24828275-20.6043959 34.44797417-27.68715657 14.80940968-8.37053587 31.8724245-12.5558038 48.93543932-12.55580381 2.25360586-0.3219438 4.18526793 1.28777447 4.50721173 3.54138107v64.06679208c0 2.57554966-1.60971826 3.54138035-5.15109933 3.54138107-11.58997241-0.3219438-23.50188864 0.64388761-34.76991724 3.21943653-9.33636654 1.93166207-18.35079002 4.82915554-27.0432697 8.69247969-6.11693001 2.89749347-11.91191622 6.76081761-16.41912721 11.91191548v164.19127808c0 3.21943655-1.28777447 4.50721174-4.18526795 4.507211h-63.42290522c-2.57554966 0.3219438-4.82915554-1.28777447-5.15109934-3.86332414v-179.6445739c0-7.72664828 0-15.77524036-0.32194305-24.14577622-0.3219438-8.37053587-0.3219438-16.74107177-0.64388762-25.11160689 0-7.40470449-0.64388761-14.48746588-1.28777445-21.89217038-0.3219438-1.60971826 0.64388761-3.21943655 2.25360512-3.54138033 0-0.3219438 0.64388761-0.3219438 0.96583141 0z" fill="#9999FF" p-id="3293"></path></svg>