<?xml version="1.0" standalone="no"?><!DOCTYPE svg PUBLIC "-//W3C//DTD SVG 1.1//EN" "http://www.w3.org/Graphics/SVG/1.1/DTD/svg11.dtd"><svg t="1680367567119" class="icon" viewBox="0 0 1050 1024" version="1.1" xmlns="http://www.w3.org/2000/svg" p-id="3231" xmlns:xlink="http://www.w3.org/1999/xlink" width="32.8125" height="32"><path d="M134.00524711 123.42191379m139.21283761 0l507.71740744 0q139.21283761 0 139.2128376 139.2128376l0 488.06383057q0 139.21283761-139.2128376 139.21283759l-507.71740745 0q-139.21283761 0-139.2128376-139.21283759l0-488.06383057q0-139.21283761 139.2128376-139.2128376Z" fill="#001E36" p-id="3232"></path><path d="M311.02501566 660.93086856V323.94080968c0-2.45669691 1.05474196-3.69159684 3.16422587-3.69159687 5.61764726 0 10.75050635-0.08189012 18.48746491-0.26204808q11.59561043-0.26204735 25.04848405-0.52737098 13.4495981-0.26204735 28.48130914-0.52737098 15.02843548-0.26204735 29.79482212-0.26204734 40.07364401 0 67.50348672 10.01677306a117.11894152 117.11894152 0 0 1 44.03711484 26.89591986 103.16817757 103.16817757 0 0 1 23.99374212 37.1780166 123.3229203 123.3229203 0 0 1 7.38319369 42.45500265q0 42.19950565-19.51272694 69.61296988a110.25001589 110.25001589 0 0 1-52.73709784 39.81814702c-22.14958109 8.26432953-46.76241094 11.06823946-73.83193847 11.06823945q-11.60543706 0-16.34850032-0.2620481-4.7463388-0.26204735-14.23901642-0.26859842v105.21870016a4.19276347 4.19276347 0 0 1-4.7463388 4.74961435H314.7166125c-2.46324801 0-3.69159684-1.40195498-3.69159684-4.22224338zM382.24957913 383.53700651v109.9126295q6.84599608 0.53064652 12.65690349 0.52737098h17.40324229a123.68651179 123.68651179 0 0 0 37.70866384-6.02054601 56.85779856 56.85779856 0 0 0 26.89264435-17.40324228q10.28537222-12.12298141 10.28537223-33.75174262a53.33653231 53.33653231 0 0 0-7.64851733-29.00540456 49.17980132 49.17980132 0 0 0-22.93900016-18.72003233 97.74378971 97.74378971 0 0 0-38.49808144-6.59377464q-12.65690348 0-22.41162917 0.26204735-9.76455234 0.27515027-13.4495981 0.79269461zM762.82472092 473.4619483a123.30326704 123.30326704 0 0 0-31.38021135-11.07479054 166.64595585 166.64595585 0 0 0-36.65064559-4.21896784 68.20446382 68.20446382 0 0 0-19.77477429 2.37153127 17.77010932 17.77010932 0 0 0-10.28537147 6.59377537 16.60727287 16.60727287 0 0 0-2.6368549 8.96530664 14.00317344 14.00317344 0 0 0 3.16422587 8.43793565 35.89398273 35.89398273 0 0 0 11.07151501 8.69998375 220.93568672 220.93568672 0 0 0 23.20759858 10.80946691 229.94685173 229.94685173 0 0 1 50.36229103 23.99701765 76.58999001 76.58999001 0 0 1 25.84445423 27.16124352 72.41360503 72.41360503 0 0 1 7.64524179 33.75174337 75.80712204 75.80712204 0 0 1-12.65690424 43.50646832 83.25255259 83.25255259 0 0 1-36.65392112 29.27072744q-24.00356875 10.54414402-59.32759767 10.54741957a214.56465214 214.56465214 0 0 1-44.56448582-4.21896782 142.18707886 142.18707886 0 0 1-33.48641974-10.54741957 6.82961835 6.82961835 0 0 1-3.69159757-6.32845173v-56.95606641a3.09871423 3.09871423 0 0 1 1.32006558-2.90217854 2.55824032 2.55824032 0 0 1 2.89890298 0.26204811 140.88666729 140.88666729 0 0 0 40.60756533 16.08645297 167.45502819 167.45502819 0 0 0 38.49808217 5.0116617q18.4547087 0 27.15796797-4.74961436a14.90723807 14.90723807 0 0 0 8.70325856-13.70836988q0-6.84599608-7.91056468-13.18427446-7.91056468-6.32845174-32.16962967-15.29703467a193.86288439 193.86288439 0 0 1-46.67397047-23.72841849 80.48794919 80.48794919 0 0 1-24.786436-27.6886145 72.72478628 72.72478628 0 0 1-7.64524177-33.48641973 75.6007597 75.6007597 0 0 1 11.07151574-39.55282412 80.48139811 80.48139811 0 0 1 34.28238913-30.06014577q23.2010475-11.59561043 58.01080837-11.60216152a256.81001619 256.81001619 0 0 1 40.60756608 2.89890223 106.447049 106.447049 0 0 1 28.26839494 7.64851733 4.80857491 4.80857491 0 0 1 3.16750143 2.89890223 14.57312724 14.57312724 0 0 1 0.52409543 3.95692048v53.26119403a3.54419509 3.54419509 0 0 1-1.57883739 3.16750141 5.09682735 5.09682735 0 0 1-4.53997648 0z" fill="#31A8FF" p-id="3233"></path></svg>