<?xml version="1.0" standalone="no"?><!DOCTYPE svg PUBLIC "-//W3C//DTD SVG 1.1//EN" "http://www.w3.org/Graphics/SVG/1.1/DTD/svg11.dtd"><svg t="1680367418143" class="icon" viewBox="0 0 1024 1024" version="1.1" xmlns="http://www.w3.org/2000/svg" p-id="3231" xmlns:xlink="http://www.w3.org/1999/xlink" width="32" height="32"><path d="M430.47619018 125.71428542C370.28571429 125.71428542 321.52380982 174.47619077 321.52380982 234.66666667v64h163.42857143c14.85714286 0 27.04761875 21.71428571 27.04761875 36.57142857H240C179.8095241 335.23809524 131.04761875 383.99999971 131.04761875 444.19047649v144.03809465c0 60.1904759 48.76190447 108.95238125 108.95238125 108.95238124h44.95238125v-102.09523839c0-60.1904759 48.38095268-108.95238125 108.57142857-108.95238036h200c60.1904759 0 108.95238125-48.41904732 108.95238036-108.6095241V234.66666667C702.47619018 174.47619077 653.71428571 125.71428542 593.52380982 125.71428542z m-27.42857143 61.33333393c15.23809553 0 27.42857143 4.57142857 27.42857143 27.04761875s-12.1904759 33.94285714-27.42857143 33.94285714c-14.85714286 0-27.04761875-11.42857143-27.04761875-33.90476161s12.1904759-27.08571429 27.04761875-27.08571428z" fill="#3C78AA" p-id="3232"></path><path d="M739.0095241 316.19047649v102.0952375a108.57142857 108.57142857 0 0 1-108.57142857 108.91428572H430.47619018A108.57142857 108.57142857 0 0 0 321.52380982 635.77142828v142.85714286a108.95238125 108.95238125 0 0 0 108.95238036 108.95238124h163.04761964A108.95238125 108.95238125 0 0 0 702.47619018 778.66666667v-64h-163.46666608c-14.85714286 0-27.0095241-21.71428571-27.0095241-36.57142857h272A108.95238125 108.95238125 0 0 0 892.95238125 569.14285685v-144a108.95238125 108.95238125 0 0 0-108.95238125-108.95238036zM371.8095241 488.11428542l-0.15238124 0.15238125c0.45714286-0.07619018 0.95238125-0.03809553 1.44761875-0.15238125z m249.14285715 277.18095268c14.85714286 0 27.04761875 11.42857143 27.04761875 33.90476161a27.04761875 27.04761875 0 0 1-27.04761875 27.04761964c-15.23809553 0-27.42857143-4.57142857-27.42857143-27.04761964s12.1904759-33.90476161 27.42857143-33.90476161z" fill="#FDD835" p-id="3233"></path></svg>