<?xml version="1.0" standalone="no"?><!DOCTYPE svg PUBLIC "-//W3C//DTD SVG 1.1//EN" "http://www.w3.org/Graphics/SVG/1.1/DTD/svg11.dtd"><svg t="1680367156319" class="icon" viewBox="0 0 1150 1024" version="1.1" xmlns="http://www.w3.org/2000/svg" p-id="3231" xmlns:xlink="http://www.w3.org/1999/xlink" width="35.9375" height="32"><path d="M577.74839855 432.72880018a79.23647392 79.23647392 0 1 0 0 158.47207958 79.23647392 79.23647392 0 0 0 0-158.47207959zM355.79337929 669.57614393l-17.47508474-4.44495163C207.98918439 632.20555933 133.25322399 576.31029103 133.25322399 511.79858842s74.76374096-120.38179436 205.06507057-153.33260388l17.47508473-4.41717107 4.91635987 17.33617962c15.1423534 51.67603652 32.31271559 95.65588266 52.76036135 137.71623823l-2.27803771-5.16725627 3.75042833 7.8906574-3.75042833 7.89065818c-18.22516995 36.92348465-35.42070945 80.90333078-48.92485404 126.43890922l-1.5574696 6.11354502z m-25.61577106-270.60380036C231.13245073 426.78367738 170.3442626 469.3466948 170.3442626 511.79858842c0 42.4241123 60.78818736 84.98712971 159.83334563 112.82537659 14.22471348-45.00774081 29.06060857-82.37572062 46.17454138-118.43799629l-2.38916226 5.61175143c-14.75255187-30.50521785-29.61622753-67.87319768-41.97961714-106.34894311l-1.80576198-6.50074175z m469.52754533 270.60380036l-4.91722813-17.3630927c-15.11370381-51.64825596-32.28319851-95.60032075-52.78380137-137.63549978l2.25025637 5.11169437-3.75042755-7.8906574 3.75042755-7.8906574c18.22516995-36.92348465 35.42070945-80.87554944 48.95350365-126.41112867l1.55573307-6.13958981 4.91722813-17.33618039 17.53064664 4.41717106c130.27007598 32.92302817 205.03208041 88.82090126 205.03208041 153.36038521S947.48156789 632.18125104 817.20801964 665.1311923z m-18.16960805-157.74977496a917.89121656 917.89121656 0 0 1 43.78537912 112.82624486c99.10072017-27.86776397 159.83334563-70.42904486 159.83334563-112.82537659 0-42.45276188-60.78818736-84.98712971-159.83334563-112.82537659-14.19693292 44.97909199-29.03282724 82.31842298-46.17540889 118.40934746l2.3891615-5.55619031zM329.92758008 398.80652615l-4.91722812-17.30839907c-36.64567518-129.13366153-25.53242784-221.67807804 30.47743729-253.96127654 54.92640778-31.69979823 143.13612743 5.75065656 235.56941937 100.60089134l12.58824276 12.91900932-12.58824276 12.91900933a877.94308049 877.94308049 0 0 0-87.8485677 107.04346641l-1.88910444 2.86491028-5.00057058 7.14057221-8.69630527 0.7500852a879.79485426 879.79485426 0 0 0-146.24846184 23.8933523l6.0562466-1.30223187z m70.23371035-245.60094743c-9.91866698 0-18.69744644 2.13913335-26.11582812 6.41739929-36.81062511 21.22898534-43.34001569 95.02212928-17.97427354 194.59252115 33.616684-7.91843873 74.48766801-14.47474239 116.13130974-18.28073184l3.63930376-0.27780948a925.94855964 925.94855964 0 0 1 76.57123948-94.85023556l-0.55561895 0.60770857C494.06784126 185.15801064 439.36454933 153.20731523 400.16215869 153.20731523z m355.20286506 754.27445245c-52.78380215 0-120.57712965-39.75714132-190.92283127-111.99194815l-12.58563794-12.9181403 12.58824195-12.91900931a873.13610868 873.13610868 0 0 0 87.79213832-107.07558831l1.88910445-2.86491104 5.00057058-7.13970317 8.66852395-0.75008598a881.83067743 881.83067743 0 0 0 146.33180505-23.83778964l-6.05711486 1.27792359 17.47508475-4.41717106 4.97278924 17.33618039c36.56233272 129.05031831 25.47686595 221.62251615-30.53299841 253.90571389a87.00298513 87.00298513 0 0 1-43.39557758 11.42144215h-1.25014304zM603.64284658 782.23570308c57.78784501 56.25642022 112.49200522 88.20972041 151.69352835 88.20971965h0.02778055c9.89088564 0 18.69744644-2.13913335 26.0880468-6.41826679 36.80975684-21.22638056 43.36866451-95.04470181 17.9751418-194.6176977-33.67224589 7.94621931-74.51284455 14.50252296-116.18687165 18.28073183l-3.6115232 0.27780949a922.9056778 922.9056778 0 0 1-76.54085335 94.90579668l0.55561896-0.6077078z m221.92810618-383.42917693l-17.47508475-4.41717107c-40.36919043-10.44650459-88.20972041-18.44741752-137.21878517-22.39318114l-3.08368558-0.19446624-8.66852394-0.75008597-5.00057059-7.14057144a877.12006969 877.12006969 0 0 0-89.93213916-110.18618695l0.25002891 0.27780949-12.58824274-12.91900856 12.58824274-12.91900932C656.81905428 133.34306898 745.00099335 95.89174595 800.01074437 127.56376361c56.00986436 32.31097907 67.12311171 124.82761425 30.53299842 253.93523098z m-145.94287179-63.17821791a925.3981495 925.3981495 0 0 1 119.79926311 18.55941037c25.42130404-99.57733721 18.86413212-173.36353581-17.97514179-194.58991714-36.59011328-21.14303811-105.38008262 11.25215247-177.80935571 81.7923211a927.28378166 927.28378166 0 0 1 74.06834939 91.37761594l1.916885 2.86491028zM400.16215869 907.48003117h-1.27792358a87.59159422 87.59159422 0 0 1-43.817501-11.64108495l0.41671384 0.22224756c-56.00986436-32.25541718-67.12311171-124.79983369-30.47743653-253.90571464l4.88944679-17.33617961 17.47508473 4.41717105c42.785265 10.77987597 89.98770106 18.36407507 140.21912832 22.55986605l8.6963045 0.75008597 4.97279001 7.13970317a875.75099003 875.75099003 0 0 0 89.99290988 110.21396751l-0.27780947-0.27780948 12.58824196 12.91900931-12.58824196 12.91900933c-70.32052585 72.23480684-138.10777628 111.99194815-190.81170749 111.99194817z m-44.09096992-238.07057293c-25.42130404 99.57733721-18.86413212 173.39131637 17.9751418 194.61769769 36.56233272 20.86522863 105.32452071-11.30771437 177.80935571-81.7923211a931.91625421 931.91625421 0 0 1-74.09612996-91.40539727l-1.91688579-2.86491029a925.55962638 925.55962638 0 0 1-125.9692375-19.75312245l6.22293228 1.19458036z m221.67720978 23.25439013c-30.47743652 0-61.81261052-1.3334855-93.21115926-3.91711401l-8.69630527-0.75008521-5.00057059-7.1405722c-15.11370381-21.33750435-31.64423632-46.98018848-47.1468734-73.31826342l-2.86491027-5.27838006c-12.55785661-21.05882739-26.97703712-48.11920695-40.2823757-75.78989988l-2.91699911-6.75077068-3.69486642-7.8906574 3.69486642-7.89065742c16.22494171-34.4223311 30.61634166-61.45493011 46.06341683-87.82078713l-2.86491029 5.30616139c15.33595139-26.53254195 32.19985528-52.98174145 50.00570661-78.59751174l5.00057136-7.1405722 8.69630449-0.75008521c27.92158934-2.50028528 60.39925409-3.94489457 93.21115927-3.94489533s65.28522861 1.44460928 97.37830141 4.25395766l-4.16714293-0.30559005 8.66852472 0.75008521 4.97278925 7.14057221c32.69991233 46.28566441 63.73383607 99.10072017 90.34885298 154.47162311l2.88921857 6.66742745 3.75042832 7.89065739-3.75042832 7.89065742c-29.39397996 62.01054907-60.45481598 114.82560482-95.54475809 164.61253689l2.30581827-3.47261807-4.97278925 7.14057143-8.66852394 0.75008597c-31.36642685 2.58362852-62.7615033 3.91711401-93.23980808 3.91711324z m-81.37473902-40.14347058a1075.91011912 1075.91011912 0 0 0 162.80677568 0c27.89380878-40.14607458 54.95418835-86.23727274 78.54194985-134.35734796l2.80587611-6.33752911c-26.31029437-54.3985694-53.39845527-100.48976755-83.68142556-144.19180344l2.30581826 3.50039941c-24.36562804-1.97244767-52.73171253-3.08368558-81.37560649-3.08368558s-57.00997848 1.11123791-85.0982535 3.30593317l3.72264698-0.22224759a1026.54858272 1026.54858272 0 0 0-78.62529307 134.46847175l-2.7503142 6.22293228c26.42228642 54.45499956 53.50871081 100.54619771 83.73698745 144.27688319l-2.36138018-3.6115232z" fill="#61DAFB" p-id="3232"></path></svg>