<?xml version="1.0" standalone="no"?><!DOCTYPE svg PUBLIC "-//W3C//DTD SVG 1.1//EN" "http://www.w3.org/Graphics/SVG/1.1/DTD/svg11.dtd"><svg t="1680422925602" class="icon" viewBox="0 0 1024 1024" version="1.1" xmlns="http://www.w3.org/2000/svg" p-id="3321" xmlns:xlink="http://www.w3.org/1999/xlink" width="32" height="32"><path d="M487.74746094 215.70927733a23.00668945 23.00668945 0 1 1 23.034375 23.03437502 23.00668945 23.00668945 0 0 1-23.034375-23.034375zM212.99609375 424.2921875a23.034375 23.034375 0 1 1 23.034375 23.034375 23.034375 23.034375 0 0 1-23.034375-23.034375z m549.72421875 1.10742188a23.00668945 23.00668945 0 1 1 46.04106445 0 23.00668945 23.00668945 0 0 1-46.04106445 0z m-483.11279298 31.56152343a21.04101563 21.04101563 0 0 0 10.65893556-27.68554687l-10.21596679-23.14511719h40.19941406v181.2019043h-81.11865235a283.69379883 283.69379883 0 0 1-9.19160156-108.25048828l49.64018554-22.1484375z m168.13432618 4.4296875v-53.40541992h95.7366211c4.98339844 0 34.91147461 5.70322267 34.9114746 28.12851563 0 18.6046875-22.97900392 25.2769043-41.88823242 25.27690429H447.76953125zM317.09375 748.98828125a23.034375 23.034375 0 1 1 46.04106445 0 23.034375 23.034375 0 0 1-46.06875 0z m341.36279298 1.10742188a23.00668945 23.00668945 0 1 1 46.04106444 0 23.00668945 23.00668945 0 0 1-46.04106446 0z m7.11518554-52.2703125a20.98564454 20.98564454 0 0 0-24.91699219 16.16835937l-11.5725586 53.98681642a283.77685548 283.77685548 0 0 1-236.57299804-1.16279298l-11.54487305-53.95913086a20.98564454 20.98564454 0 0 0-24.91699219-16.14067383l-47.61914062 10.24365235c-8.859375-9.10854492-17.10966798-18.82617188-24.64013672-29.04213868h231.81108397c2.63012695 0 4.37431642-0.4706543 4.37431642-2.76855469v-82.11533203c0-2.38095704-1.74418945-2.76855469-4.3743164-2.76855468h-67.82958985v-52.04882813h73.36669923a46.09643555 46.09643555 0 0 1 45.07207029 39.06430665c2.90698242 11.43413086 9.30234375 48.64350586 13.67666017 60.54829101 4.34663086 13.37211914 22.1484375 40.06098633 41.02998048 40.06098633h119.68461913c-8.0288086 10.76967773-16.80512695 20.95795898-26.27358399 30.45410156l-48.7265625-10.52050781z m128.73779296-216.50097657c1.66113281 16.33447267 1.8272461 32.8350586 0.60908204 49.22490236h-29.06982422c-2.93466798 0-4.12514648 1.93798829-4.12514649 4.76191406v13.37211913c0 31.45078125-17.71875 38.31679687-33.22265625 40.06098633-14.81176758 1.66113281-31.22929688-6.2015625-33.22265625-15.22705077a100.08325195 100.08325195 0 0 0-46.23486329-77.76870119c28.51611329-18.10634767 58.13964844-44.82290039 58.13964844-80.5649414a91.16850586 91.16850586 0 0 0-44.54604491-74.86171875 126.24609375 126.24609375 0 0 0-60.90820313-20.04433594H300.6762207A283.66611329 283.66611329 0 0 1 459.39746094 230.65947265l35.4928711 37.20937502a20.98564454 20.98564454 0 0 0 29.67890625 0.7198242l39.70107421-37.98457031a283.72148438 283.72148438 0 0 1 194.21411133 138.42773438l-27.18720703 61.37885742a21.06870117 21.06870117 0 0 0 10.68662109 27.68554687l52.32568359 23.17280273z m67.77421875 0.96899414l-0.91362304-9.49614257 27.99008789-26.10747071a11.62792969 11.62792969 0 0 0-3.70986328-18.71542969l-35.65898438-13.37211913-2.76855469-9.24697266 22.31455079-31.0078125a11.68330079 11.68330079 0 0 0-7.28129883-17.60800781l-37.73540039-6.14619142-4.54042969-8.47177733 15.86381835-34.80073243a11.5725586 11.5725586 0 0 0-10.5758789-15.86381835l-38.28911133 1.32890623-6.2015625-7.30898437 8.80400391-37.29243163a11.62792969 11.62792969 0 0 0-13.48286133-13.48286133l-37.32011719 8.72094727-7.36435547-6.06313477 1.38427735-38.20605469a11.5725586 11.5725586 0 0 0-11.96015625-11.40644531 11.79404298 11.79404298 0 0 0-3.87597656 0.77519531l-34.82841798 15.86381836-8.47177734-4.54042969-6.14619141-37.7354004a11.65561523 11.65561523 0 0 0-17.52495116-7.28129881l-31.0078125 22.31455078-9.24697266-2.76855469-13.37211914-35.79741211a11.65561523 11.65561523 0 0 0-18.68774414-3.73754883l-26.19052734 28.01777344-9.49614258-0.91362305-20.15507813-32.58588867a11.62792969 11.62792969 0 0 0-19.04765625 0l-20.15507812 32.58588867-9.49614258 0.91362305-26.10747071-28.01777344a11.65561523 11.65561523 0 0 0-18.68774413 3.73754883l-13.48286133 35.63129883-9.21928711 2.76855469-31.0078125-22.1484375a11.68330079 11.68330079 0 0 0-17.60800781 7.28129883l-6.14619141 37.73540038-8.47177734 4.54042969-34.82841797-15.86381836a11.65561523 11.65561523 0 0 0-15.83613282 10.60356446l1.32890625 38.28911133-7.36435546 6.00776367-37.29243165-8.74863282a11.62792969 11.62792969 0 0 0-13.48286132 13.48286134L243.45019531 285.44916992l-6.03544923 7.33666991L199.15332031 291.45693358a11.68330079 11.68330079 0 0 0-10.60356445 15.86381837l15.86381837 34.80073242-4.54042969 8.47177736-37.7354004 6.14619139a11.62792969 11.62792969 0 0 0-7.28129883 17.52495118l22.31455079 31.0078125-2.7685547 9.24697265-35.7974121 13.37211915a11.62792969 11.62792969 0 0 0-3.70986328 18.71542969l27.99008788 26.10747069-0.91362304 9.49614258-32.58588867 20.15507813a11.65561523 11.65561523 0 0 0 0 19.04765625l32.58588867 20.15507812 0.91362304 9.49614258-27.96240234 26.10747071a11.62792969 11.62792969 0 0 0 3.68217774 18.68774413l35.7974121 13.37211914 2.76855468 9.24697267L154.85644531 649.59716798a11.62792969 11.62792969 0 0 0 7.30898438 17.60800779l37.73540039 6.14619142 4.54042969 8.49946289-15.86381835 34.80073242a11.68330079 11.68330079 0 0 0 10.60356444 15.86381836l38.28911133-1.32890625 6.09082031 7.36435547-8.80400392 37.32011719a11.62792969 11.62792969 0 0 0 13.48286134 13.45517578l37.23706054-8.83168947 7.36435548 6.03544923-1.3565918 38.26142577a11.60024414 11.60024414 0 0 0 15.83613281 10.57587892l34.80073242-15.86381836 8.47177734 4.54042969 6.14619141 37.70771484a11.62792969 11.62792969 0 0 0 17.52495118 7.30898438l31.0078125-22.34223634 9.24697265 2.76855469 13.37211913 35.76972656a11.68330079 11.68330079 0 0 0 18.68774415 3.70986329l26.10747071-27.96240235 9.49614258 0.91362305 20.15507812 32.58588867a11.68330079 11.68330079 0 0 0 19.04765625 0l20.15507813-32.58588867 9.49614256-0.94130859 26.10747072 27.99008789a11.62792969 11.62792969 0 0 0 18.68774414-3.70986329l13.37211914-35.76972656 9.24697265-2.76855469 31.0078125 22.34223634a11.62792969 11.62792969 0 0 0 17.60800782-7.30898438l6.1461914-37.70771484 8.47177735-4.54042969 34.80073241 15.86381836a11.65561523 11.65561523 0 0 0 15.83613281-10.57587892l-1.32890625-38.31679687 7.33666993-6.03544921 37.29243163 8.77631836a11.65561523 11.65561523 0 0 0 13.48286134-13.45517578l-8.55483398-37.2647461 6.03544921-7.36435546 38.28911133 1.32890625a11.65561523 11.65561523 0 0 0 10.57587891-15.86381837l-15.86381837-34.80073242 4.54042969-8.4994629 37.7354004-6.14619139a11.62792969 11.62792969 0 0 0 7.28129883-17.58032227l-22.31455079-31.0078125 2.7685547-9.24697265 35.7974121-13.37211914a11.5725586 11.5725586 0 0 0 5.95239259-15.33779298 11.43413086 11.43413086 0 0 0-2.21484375-3.32226563l-28.01777344-26.13515625 0.91362304-9.49614257 32.58588867-20.15507812a11.62792969 11.62792969 0 0 0 0-19.04765625l-32.55820312-20.18276368z" fill="#2c2c2c" p-id="3322"></path></svg>