<?xml version="1.0" standalone="no"?><!DOCTYPE svg PUBLIC "-//W3C//DTD SVG 1.1//EN" "http://www.w3.org/Graphics/SVG/1.1/DTD/svg11.dtd"><svg t="1680364889690" class="icon" viewBox="0 0 1160 1024" version="1.1" xmlns="http://www.w3.org/2000/svg" p-id="2816" xmlns:xlink="http://www.w3.org/1999/xlink" width="36.25" height="32"><path d="M1073.09333304 458L875.69333333 116.11999971C858.41333333 86.41999971 816.35333362 62 782.03333304 62H387.23333362c-34.2 0-76.38000029 24.41999971-93.6 54L96.29333333 457.88000029c-17.21999971 29.7-17.21999971 78.12 0 108l197.39999971 341.87999942c17.21999971 29.7 59.28000029 54 93.6 54h394.86000058c34.2 0 76.38000029-24.36000029 93.6-54l197.39999971-341.82c17.21999971-29.63999971 17.21999971-78.23999971 0-108zM541.97333333 251.11999971a40.74000029 40.74000029 0 1 1 81.42000029 0v243.24000029a40.74000029 40.74000029 0 1 1-81.42000029 0V251.11999971z m40.74000029 519.00000029a276.00000029 276.00000029 0 0 1-164.64000058-497.27999971 36.18 36.18 0 1 1 43.2 58.07999971 203.58 203.58 0 1 0 242.34000029-0.29999971 36.29999971 36.29999971 0 1 1 42.77999971-58.62000058 276.00000029 276.00000029 0 0 1-163.67999942 498.18000058z" fill="#68BD45" p-id="2817"></path></svg>