<?xml version="1.0" standalone="no"?><!DOCTYPE svg PUBLIC "-//W3C//DTD SVG 1.1//EN" "http://www.w3.org/Graphics/SVG/1.1/DTD/svg11.dtd"><svg t="1680365088035" class="icon" viewBox="0 0 1024 1024" version="1.1" xmlns="http://www.w3.org/2000/svg" p-id="2816" xmlns:xlink="http://www.w3.org/1999/xlink" width="32" height="32"><path d="M591.84712059 469.43558163l-171.44864828 59.28985243-149.1308089 69.69794135-41.7876954 11.65084445a1225.66883555 1225.66883555 0 0 1-68.81765452 63.53593837c-10.45986964 8.80285984-26.04610962 25.26938666-33.91690312 35.7292563-11.80618903 15.58624119-21.12686459 32.20811261-25.165824 44.94636798-7.14585125 23.09456236-3.62470756 46.39625125 10.09739852 67.9373689 17.6057209 27.44421095 52.76537955 55.40623762 93.72457127 74.56540444 20.86795734 9.68314668 55.97583527 22.21427675 82.43619673 29.2047834 43.91073777 11.80618903 128.93601185 24.54444563 175.69473422 26.46036269 9.47602015 0.41425184 22.16249481 0.41425184 22.68031052 0 1.03563022-0.67316031 8.28504534-15.37911467 16.72543406-33.60621394 28.79053156-62.13783703 49.5031431-120.49562192 60.79151764-170.30945541 6.73159941-30.1886329 12.06509629-70.42288238 15.53445926-118.01010844 0.93206755-13.30785302 1.29453868-57.8917511 0.51781572-73.01195852a541.79015702 541.79015702 0 0 0-6.47269217-64.36444327 15.68980385 15.68980385 0 0 1-0.36246991-5.59240534c0.51781571-0.41425184 2.07126164-0.98384949 23.19812502-7.4047585l-4.29786666-10.71877689z m-39.14683734 24.28553838c1.55344592 0 5.69596799 42.15016653 6.73159943 68.76587258a38.88793008 38.88793008 0 0 1-0.10356387 9.32067556c-1.03563022 0-21.90358755-13.04894578-36.76488651-22.93921777-12.99716384-8.64751525-37.64517334-25.89076502-41.52878816-29.2047834-1.29453868-0.98384949-1.13919408-1.08741215 9.47602015-4.97102697a1706.20144238 1706.20144238 0 0 1 62.18961896-20.97152z m-87.35544296 30.44754015c1.19097481 0 4.14252206 1.81235317 11.28837454 6.47269095 26.71926992 17.70928355 63.01812266 39.09505539 78.55258192 46.24090666 4.81568237 2.1748243 5.33349808 1.34631939-5.695968 9.32067555-23.61237808 17.03612325-53.02428801 33.76155853-89.0642335 50.64233719a262.53236148 262.53236148 0 0 1-11.75440709 5.33349808 37.43804682 37.43804682 0 0 1 1.55344592-7.50832237c8.64751525-34.17581037 13.56676149-68.76587259 13.82566875-96.468992 0.15534459-13.72210608 0.15534459-13.72210608 1.29453746-14.13635793-0.25890725 0.10356266-0.10356266 0.10356266 0 0.10356387z m-17.96819081 7.24941392c0.77672297 0.88028562 0.25890725 31.58673423-0.77672296 39.97534223a367.13105423 367.13105423 0 0 1-14.91308089 69.2836883c-0.51781571 0.67316031-18.27887999-17.70928355-24.13019379-24.85513483a186.51707377 186.51707377 0 0 1-23.81950339-36.76488772 119.6153363 119.6153363 0 0 1-7.24941513-18.64135111c2.07126164-1.55344592 70.37110045-29.51547259 70.88891616-28.99765687z m-84.76636562 35.31500445c0.10356266 0 0.25890725 0 0.36246991 0.10356265a26.46036268 26.46036268 0 0 1 1.96769898 4.97102697c4.14252206 11.90975169 13.46319762 29.51547259 21.4893345 40.75206519a227.63161008 227.63161008 0 0 0 36.29885394 39.9235603c0.77672297 0.8285049 1.03563022 0.67316031-20.09123437 9.21711168-24.49266369 9.83849127-51.21193362 19.72876325-81.81481837 30.1886329a3920.37970132 3920.37970132 0 0 0-21.85180683 7.50832239c-1.19097481 0.41425184-0.77672297-0.25890725 2.58907736-5.8513138 15.17198814-25.11404206 38.21476978-74.41005985 51.16015168-109.25902932 2.22660623-6.05843911 4.45321125-12.06509629 4.81568236-13.46319883 0.51781571-1.91591705 1.19097481-2.58907614 2.84798461-3.57292564 0.93206755-0.25890725 1.81235317-0.51781571 2.22660623-0.51781449z m-25.89076624 11.39193598c0.36247111 0.25890725-6.26556564 14.96486283-12.7382566 28.37627972a1080.78411261 1080.78411261 0 0 1-51.21193361 93.31031822c-0.62137837 0.98384949-0.88028562 0.72494102-2.95154726-3.5211437a131.00727349 131.00727349 0 0 1-9.99383586-31.84564148 135.56404739 135.56404739 0 0 1 0.62137837-40.90740979c1.70879052-8.49217066 1.55344592-8.388608 5.48884267-10.4080877 16.57008947-8.95820444 70.21575585-35.5739117 70.73357157-35.00431527z m223.54086874 9.57958402v5.79953064a789.56478222 789.56478222 0 0 1-9.21711168 113.03908269s-3.78005216-1.03563022-8.18148269-2.43373276a324.82554311 324.82554311 0 0 1-59.60054162-27.02995911c-12.582912-7.24941392-30.86179199-19.26272948-30.34397748-19.78054398 0.15534459-0.15534459 5.59240533-3.15867378 11.90975289-6.73159942 25.42473125-13.98101333 49.81383229-29.10122075 70.94069689-44.01430164 7.87079229-5.69596799 19.78054519-14.70595436 22.42140327-17.19146784l2.07126042-1.65700858z m-321.4597428 40.64850132c0.51781571 0 0.41425184 1.03563022-0.36247111 6.00665717a208.16175408 208.16175408 0 0 0-1.44988328 14.70595559c-1.03563022 20.03945245 2.07126164 34.84897068 11.3919372 55.14733037 2.58907614 5.64418727 4.66033778 10.30452505 4.55677512 10.45986841-0.88028562 0.77672297-86.68228267 27.44421095-113.66046105 35.2114418l-15.53445927 4.55677391c-0.93206755 0.25890725-1.03563022 0.15534459-0.67315909-2.17482429 3.00332919-20.19479703 17.50215702-46.55159584 37.748736-68.76587259 13.46319762-14.80951823 24.23375645-23.45703348 42.61619909-34.59006221 13.20429037-7.97435616 33.554432-19.88410785 35.10787793-20.4537055 0-0.10356266 0.15534459-0.10356266 0.25890846-0.10356266z m202.20687762 38.31833244a51.36727822 51.36727822 0 0 1 6.99050667 3.93539674 377.74626725 377.74626725 0 0 0 99.26519467 40.9074098l3.00332919 0.67315909-4.14252327 2.48551347c-17.24324978 10.14918045-73.89224414 35.10787792-131.83577719 57.99531498l-18.27887998 7.30119585a8.95820444 8.95820444 0 0 1-2.95154726 0.98384949c0-0.15534459 2.33016889-4.97102697 5.28171615-10.87412148 16.20761956-32.10454873 32.57058251-71.19960534 40.85562785-98.38490905 1.03563022-2.58907614 1.65700859-4.91924502 1.81235317-5.07458962z m-20.60904887 7.09407054a41.06275438 41.06275438 0 0 1-2.22660623 6.31734635 884.32498369 884.32498369 0 0 1-44.94636919 95.89939557 366.09542281 366.09542281 0 0 1-8.95820444 16.36296294c-0.10356266 0-3.98717747-2.48551348-8.64751526-5.48884146-27.49599289-17.86462815-51.88509392-39.81999764-67.83380624-61.10220682l-2.33016889-3.00332919 11.80618904-3.41758105a813.48784947 813.48784947 0 0 0 113.81580565-41.58056887c5.0228089-2.22660623 9.16533097-3.98717747 9.32067556-3.98717747z m128.05572501 47.3283188s0.10356266 0.15534459 0 0c0.10356266 3.15867378-6.47269095 31.43138964-11.90975169 51.88509392a1554.84402725 1554.84402725 0 0 1-21.54111644 73.42621037 518.59203201 518.59203201 0 0 1-107.03242429-31.84564148 296.19035614 296.19035614 0 0 1-22.78387439-10.71877689c-0.31068918-0.25890725 7.45654045-4.14252206 17.34681365-8.64751525 58.92738253-27.28886636 120.13315201-58.30600416 141.10467079-71.61385719a16.46652682 16.46652682 0 0 1 4.81568237-2.48551348z m-295.67254042 10.71877689c0.31068918 0.25890725-16.15583763 25.37295053-39.25040121 59.54876089l-20.86795613 31.17248118c-3.46936298 5.17815349-8.80285984 13.46319762-11.75440831 18.38244386l-5.43706074 8.9064225-5.85131259-5.17815227a223.1266169 223.1266169 0 0 1-24.13019378-26.09789157 115.16212505 115.16212505 0 0 1-21.64467909-44.32499081c-1.39810133-6.57625483-1.39810133-9.89027199-0.10356388-10.30452505 1.91591705-0.51781571 36.55776119-9.2171129 68.92121839-17.13968591a5480.19475555 5480.19475555 0 0 0 60.17013806-15.01664475z m16.62187141 6.73159942l4.14252206 4.91924503c18.64135111 22.11071408 37.748736 38.42189631 60.79151764 52.71359881 4.14252206 2.43373155 7.24941392 4.66033778 6.99050667 4.81568238a7893.16231229 7893.16231229 0 0 1-154.46430698 57.73640651 22.16249481 22.16249481 0 0 1-2.58907614-1.76057245l-2.33016888-1.81235319 3.72827022-5.74774992c12.22044089-18.64135111 27.49599289-39.09505539 60.79151642-81.65947377l22.93921899-29.2047834z m103.40771672 78.34545538c0.15534459-0.15534459 5.85131259 2.07126164 12.84181926 4.81568237 16.88077866 6.73159941 30.1886329 10.97768414 48.10504298 15.74158579a505.38774164 505.38774164 0 0 0 72.70126934 13.30785303c2.84798461 0.31068918 4.40143053 0.56959644 3.8836148 1.03563143-0.93206755 0.51781571-19.93588978 7.24941392-33.96868505 11.90975169a8841.592832 8841.592832 0 0 1-165.33842725 51.41906015c-1.29453868 0.31068918-5.59240533-0.93206755-5.59240533-1.501664 0-0.25890725 3.10689185-4.50499318 6.88694281-9.16533095 18.64135111-23.61237808 37.17913956-49.96917689 52.61003616-74.92787558 4.24608594-6.88694401 7.87079229-12.47934934 7.87079228-12.63469393z m-22.78387317 0.67316031c0.10356266 0.15534459-9.06176831 15.79336651-25.165824 42.66798103l-17.24324978 28.8423135c-2.58907614 4.40143053-6.47269095 11.23659261-8.64751646 15.06842548l-3.78005094 7.04228738-1.91591705-0.56959643c-4.66033778-1.39810133-37.48982875-13.56676149-46.137344-17.2950317a312.76044683 312.76044683 0 0 1-30.24041362-14.70595437c-10.35630577-5.90309452-23.30168889-14.65417364-22.26605868-14.91308089 0.25890725-0.15534459 18.01997275-5.22993422 39.35396386-11.39193719a3068.57351941 3068.57351941 0 0 0 108.89655942-32.67414517 49.60670698 49.60670698 0 0 1 7.14585125-2.07126164z m161.35124977 40.07890489h0.10356266c0.51781571 1.34631939-20.45370429 63.12168653-28.11737127 82.59154132-1.65700859 4.40143053-2.33016889 5.48884268-3.2104545 5.38528002a2246.28280889 2246.28280889 0 0 1-151.20207053-26.04611084l-3.15867258-0.72494102 19.31451021-4.66033778c41.42522429-9.89027199 61.41289601-15.22377008 81.65947499-21.85180561 25.52829511-8.23326341 50.74589984-18.48600652 76.32597568-31.12070046a60.58439111 60.58439111 0 0 1 8.28504534-3.57292563z m-96.31364741-811.41658905c-2.84798461-0.41425184-48.82998401 17.13968711-78.5008012 29.92972564-40.07890489 17.29503171-71.14782341 33.76155853-90.35877094 48.00147912-7.09406932 5.38527881-16.05227498 14.86129895-17.50215703 18.53778724a13.46319762 13.46319762 0 0 0-0.77672297 4.66033778l17.39859437 17.4503763 41.32166163 13.98101334 98.38490784 18.64135111 112.46948503 20.45370429 1.19097603-10.25274312c-0.41425184 0-0.67316031-0.15534459-1.03563143-0.15534458l-14.80951702-2.48551349-2.95154726-5.59240533a1087.30858549 1087.30858549 0 0 1-41.99482194-87.82147554 471.62618311 471.62618311 0 0 1-18.9520403-55.30267496c-2.1748243-9.32067555-2.43373155-9.89027199-3.88361481-10.0456178z m-2.07126163 6.99050667h0.15534458c0.10356266 0.15534459 0.62137837 3.98717747 1.13919408 8.54395259 2.22660623 19.15916683 6.2137837 37.69695406 12.582912 57.73640772 4.81568237 15.12020741 4.81568237 14.29170252-0.77672295 12.47934814-13.20429037-3.83183289-72.44236208-14.65417364-115.31746964-20.97152a162.49044385 162.49044385 0 0 1-12.7382566-2.07126043c-0.51781571-0.51781571 30.96535586-17.96819081 44.84280655-24.85513482 17.76106549-8.59573453 66.48748563-30.1886329 70.11219198-30.8617932zM288.09666014 114.68031408l5.02280889 1.81235317c27.44421095 9.83849127 96.57255466 23.87128532 134.63197986 27.18530372l8.0779188 0.82850489c0.10356266 0.10356266-3.52114369 2.1748243-8.18148147 4.50499319-18.38244386 9.73492739-38.62902162 21.69646102-52.61003495 30.86179198a52.81716148 52.81716148 0 0 1-8.44038994 4.97102697c-0.51781571 0-3.21045451-0.51781571-6.05843911-0.98384949l-5.17815349-0.82850368-12.9453819-13.46319884a5676.80922905 5676.80922905 0 0 0-47.63900921-48.41573096l-6.73159821-6.47269095z m-5.17815228 4.29786667l18.22709806 24.13019378c9.99383586 13.30785302 20.09123438 26.35679881 22.26605867 29.20478341 2.22660623 2.89976532 4.03895941 5.22993422 3.93539675 5.38527881a539.97780385 539.97780385 0 0 1-68.81765451-16.20761958l-7.14585127-2.48551348v-1.91591583c0.15534459-9.16533097 11.18481067-22.88743705 29.82616178-36.92023231l1.65700858-1.1909748z m155.24102873 32.93305362c0.51781571 0 1.13919408 1.19097481 2.69264 4.91924502 4.45321125 10.30452505 18.12353539 38.00764325 21.54111643 43.34114134 1.03563022 1.81235317 2.84798461 1.96769777-15.43089538-1.19097481-43.91073777-7.5601031-58.04709569-10.04561659-58.04709691-10.35630576a13.46319762 13.46319762 0 0 1 2.95154726-2.01947971c13.61854222-7.97435616 27.3406483-18.12353539 39.56109039-28.94587615l6.2137837-5.48884268c0.10356266-0.25890725 0.36247111-0.41425184 0.51781451-0.25890725z" fill="#CCCCCC" p-id="2817"></path><path d="M229.63531261 140.77820564s-2.84798461 4.81568237-0.1553446 11.90975169c1.70879052 4.40143053 6.62803555 9.78670933 12.22044088 15.27555201 0 0 57.63284385 59.5487609 64.62335052 68.04093156 31.89742341 38.99149275 45.77487289 77.41338905 47.06941156 130.38589391 0.77672297 34.02046578-5.33349808 63.95019022-20.45370429 98.64381629-26.97817717 62.29318163-83.88608 131.05905422-171.60399409 207.33325039l12.84182046-4.50499318c8.28504534-6.57625483 19.57341867-13.56676149 45.9819994-28.99765809 61.05042489-35.36678517 129.71273482-67.88558697 213.96128472-101.38823704 121.32412682-48.26038636 320.7865837-104.80581806 434.29170017-123.24004386l11.80618904-1.91591583-1.81235439-3.00332919a423.67648594 423.67648594 0 0 0-26.04610962-38.83614815 316.38515317 316.38515317 0 0 0-92.01578075-81.08987733c-50.79768178-30.03328831-116.50844445-53.49032178-199.72136414-70.94069688a2121.38575645 2121.38575645 0 0 0-78.19011201-14.13635793 7552.59518461 7552.59518461 0 0 1-139.91369599-24.13019379 1305.2570489 1305.2570489 0 0 1-52.86894342-10.35630577 321.04549095 321.04549095 0 0 1-34.38293568-9.68314667c-9.32067555-3.88361482-22.78387317-7.71544769-25.63185777-19.36629214z m33.45086812 34.33115497c0.10356266-0.15534459 2.1748243 0.67316031 4.91924625 1.60522664 4.91924502 1.81235317 11.23659261 3.83183289 18.7966957 6.05843911l17.08790518 4.81568237c7.76722963 2.07126164 14.23992059 3.98717747 14.39526517 3.98717868 0.88028562 0.93206755 13.98101333 45.25705838 18.38244387 62.29318164 1.70879052 6.42091023 3.00332919 11.90975169 2.84798339 11.9097517a27.96202667 27.96202667 0 0 1-3.21045451-5.33349809c-15.17198814-28.27271585-39.14683733-56.95968355-66.90173747-80.00246519-3.62470756-2.74442073-6.31734636-5.17815349-6.31734758-5.33349686z m63.69128296 18.6413511c0.67316031 0 3.57292563 0.41425184 7.04228861 1.24275674 22.05893215 5.17815349 61.56824061 13.15250844 86.83762725 17.70928356a30.91357392 30.91357392 0 0 1 7.66366698 1.76057124c0 0.25890725-1.55344592 1.24275675-3.52114491 2.33016889a465.51596206 465.51596206 0 0 0-27.23708443 17.29503171 251.39933275 251.39933275 0 0 0-36.66132385 31.01713659c-3.72827022 3.98717747-6.99050667 7.24941392-6.99050666 7.24941512s-0.77672297-2.33016889-1.44988327-5.17815348a461.89125571 461.89125571 0 0 0-23.19812624-67.2642086 60.79151764 60.79151764 0 0 1-2.58907614-6.31734637c0 0.31068918 0 0.15534459 0.1553446 0.1553446z m112.26235972 22.62852859c0.77672297 0.25890725 2.07126164 4.97102697 4.66033778 15.22377007a237.31475555 237.31475555 0 0 1 5.48884147 74.6689671l-0.41425184 1.34632061-6.73159943-2.33016889c-13.87745068-4.66033778-36.40241661-11.65084445-55.7169268-17.39859436a212.25249541 212.25249541 0 0 1-19.98767051-6.31734758c0-0.8285049 16.05227498-17.86462815 22.93921777-24.3373191 13.10072771-12.16866016 48.62285748-41.26987969 49.76205156-40.85562785z m8.95820444 1.39810133a2050.54862222 2050.54862222 0 0 1 77.87942283 14.23992059c18.01997275 3.72827022 44.22142695 9.47602015 45.77487287 10.14918045 0.77672297 0.31068918-1.96769777 1.91591705-10.61521423 6.05843911-34.22759231 16.31118222-59.65232355 31.01713659-84.92171021 48.829984-6.57625483 4.66033778-12.16866016 8.54395259-12.32400475 8.5439526a79.22574222 79.22574222 0 0 1-0.25890725-8.80286106 201.43015466 201.43015466 0 0 0-13.98101333-74.6689671 21.59289837 21.59289837 0 0 1-1.55344593-4.34964859z m137.7388717 28.79053156a104.08087703 104.08087703 0 0 1-2.79620266 18.1235354c-4.66033778 20.45370429-17.24324978 50.74589984-32.67414518 79.32930488a99.93835498 99.93835498 0 0 1-5.43706073 9.32067555 54.26704475 54.26704475 0 0 1-7.76722964-4.40142931 412.69880059 412.69880059 0 0 0-50.84946371-26.35680002c-5.17815349-2.33016889-9.68314668-4.24608594-9.83849127-4.50499318-0.88028562-0.8285049 40.85562785-30.03328831 62.86277928-44.01430043 17.50215702-11.28837332 46.03378134-28.01380861 46.55159584-27.44421216z m9.83849127 1.65700859c1.19097481 0 24.80335289 6.88694401 37.12735763 10.71877689 30.44754015 9.57958281 65.45185541 23.19812623 88.23572858 34.17581036l9.47602015 4.50499319-6.62803554 1.65700859a927.20009125 927.20009125 0 0 0-149.44149808 48.9853286 92.68893984 92.68893984 0 0 1-7.35297778 3.0033292c-0.25890725 0 1.03563022-3.10689185 2.69264-6.99050667 13.87745068-31.17248117 22.78387317-63.69128297 25.01047941-91.39440239 0.15534459-2.58907614 0.51781571-4.66033778 0.93206756-4.66033777zM360.79792947 305.28812919c0.36247111-0.41425184 18.38244386 4.14252206 28.11737126 7.0422874 14.7577363 4.34964859 46.08556206 15.48267732 46.08556328 16.31118222 0 0.15534459-3.46936298 3.31401838-7.61188503 7.14585125-16.98434253 14.96486283-33.29552475 30.70644739-52.86894343 50.74590105a190.7631597 190.7631597 0 0 1-11.02946607 10.7187769c-0.25890725 0-0.36247111-0.8285049-0.25890725-1.91591704 3.00332919-23.04278164 2.33016889-52.71359883-1.81235439-82.74688592-0.36247111-3.83183289-0.77672297-7.14585125-0.62137837-7.24941513z m378.52299143 0.41425184c0.25890725 0.31068918-8.28504534 14.55060977-13.72210608 22.68031052-7.76722963 11.80618903-19.15916683 27.44421095-44.9463692 61.7235852l-33.96868384 45.41240176c-5.17815349 6.88694401-9.47602015 12.63469394-9.5795828 12.63469394a47.38010075 47.38010075 0 0 1-3.62470757-5.48884268 278.58463645 278.58463645 0 0 0-52.5064723-61.30933214 306.65022578 306.65022578 0 0 0-9.5795828-8.28504534 14.7577363 14.7577363 0 0 1-2.58907736-2.27838696c0-0.41425184 22.00715022-10.45986964 38.7325855-17.60572089a1280.40191408 1280.40191408 0 0 1 99.161632-37.43804682c15.68980385-5.17815349 32.36345719-10.30452505 32.62236445-10.04561659z m9.99383465 2.74442074c0.51781571-0.10356266 3.62470756 1.55344592 7.40475972 3.88361482a442.73208889 442.73208889 0 0 1 110.29466074 94.76020147l-12.94538312 1.13919409c-54.57773394 4.40143053-124.43101867 16.57008947-191.5916646 33.76155853-4.50499318 1.08741215-8.54395259 2.07126164-8.80285984 2.07126042-0.25890725 0 4.81568237-5.38527881 11.13302872-11.80618904 39.40574459-40.23424948 57.47749925-65.60720001 78.70792773-110.91603911 2.95154725-6.73159941 5.54062339-12.42756741 5.79953065-12.89360118-0.10356266 0-0.10356266 0 0 0z m-288.63025304 31.32782698c1.81235317 0.41425184 18.64135111 8.80285984 31.37960771 15.53445926 11.65084445 6.11022105 29.15300147 16.05227498 30.0332883 16.82899672a181.23535762 181.23535762 0 0 1-13.72210608 7.56010432c-24.3373191 12.89360118-45.20527645 25.11404206-67.00530013 39.0950554-6.2137837 3.98717747-11.39193719 7.24941392-11.49549986 7.24941391-0.51781571 0-0.41425184-0.51781571 3.10689186-7.24941391 11.65084445-22.52496592 20.97152-49.39958045 26.30501686-75.60103467 0.51781571-2.07126164 1.03563022-3.41758103 1.39810134-3.41758103z m-16.82899673 3.26223644a293.60128 293.60128 0 0 1-6.73159941 26.5121434 348.48970311 348.48970311 0 0 1-22.93921776 55.7169268l-6.88694402 12.582912-3.21045451 5.48884269-7.24941513-7.40475852a95.69226903 95.69226903 0 0 0-24.13019257-18.7966957 34.48649955 34.48649955 0 0 1-6.2137837-3.83183409c0-1.08741215 22.16249481-22.36962133 39.14683733-37.748736 12.16866016-11.08124801 37.80051794-32.93305363 38.21476977-32.51880058z m103.04524561 44.89458726l6.31734759 4.40142932a460.64849898 460.64849898 0 0 1 69.23190635 58.25422222l1.55344592 1.81235439-10.51165035 3.15867257a1828.35407289 1828.35407289 0 0 0-158.76217363 53.85279291 178.74984414 178.74984414 0 0 1-11.39193719 4.194304c-0.77672297 0-1.44988327 0.67316031 11.90975169-12.32400475a593.93415941 593.93415941 0 0 0 87.09653572-105.94501214l4.5567739-7.40475852z m-27.08173983 7.14585126c0.25890725 0.25890725-17.50215702 26.71926992-28.11737125 41.68413154-12.73825659 17.86462815-35.26322252 47.74257186-50.84946372 67.26420859a412.54345599 412.54345599 0 0 1-12.27222281 14.96486283c-0.41425184 0.10356266-0.51781571-1.96769777-0.51781572-5.07458962 0-16.62187141-4.03895941-34.33115497-11.02946607-49.45136238-3.00332919-6.26556564-3.52114369-7.76722963-2.84798338-8.49217066 2.43373155-2.33016889 40.18246755-25.11404206 64.00197214-38.68080356a807.79188148 807.79188148 0 0 1 41.63235081-22.26605867z m-163.83676446 42.51263644a142.19208416 142.19208416 0 0 1 28.99765809 19.46985601 39.35396386 39.35396386 0 0 1-7.45654044 6.62803554c-12.32400475 9.32067555-31.01713659 24.28553838-41.89125928 33.45086935-11.39193719 9.63136475-11.80618903 9.89027199-10.51165036 7.81901034 8.59573453-13.82566875 12.84181925-21.64468031 17.39859437-31.69029688 3.98717747-8.90642371 8.02613689-19.46985601 10.87412149-28.68696769a24.02662992 24.02662992 0 0 1 2.58907613-6.99050667z m43.70361245 36.24707201c0.62137837-0.15534459 1.39810133 1.03563022 4.91924504 6.57625361 7.35297778 11.65084445 13.04894578 27.28886636 14.49882904 39.92356029l0.25890726 2.74442195-17.76106428 7.24941391c-31.74207883 13.04894578-61.05042489 25.94254697-80.88275202 35.57391171a1418.08900384 1418.08900384 0 0 0-33.14017895 16.88077866c0-0.15534459 3.98717747-3.31401838 8.9064225-7.14585127 38.78436622-29.77437984 72.33879822-62.44852622 97.45284149-95.07089066 2.74442073-3.46936298 5.17815349-6.62803555 5.48884268-6.7315982h0.25890724z m-20.09123438 5.17815228c0.51781571 0.56959644-14.29170252 18.27887999-24.33731909 29.10122074a435.48267498 435.48267498 0 0 1-80.52028091 68.76587259l-7.76722962 5.17815348c-0.93206755 0.56959644 0.25890725-0.77672297 13.72210608-16.31118222a375.41609836 375.41609836 0 0 0 22.42140327-28.11737125 45.04993185 45.04993185 0 0 1 12.94538191-13.04894578c19.05560295-14.49882905 63.01812266-46.08556206 63.53593836-45.56774756z" fill="#E7332B" p-id="2818"></path></svg>