<?xml version="1.0" standalone="no"?><!DOCTYPE svg PUBLIC "-//W3C//DTD SVG 1.1//EN" "http://www.w3.org/Graphics/SVG/1.1/DTD/svg11.dtd"><svg t="1698826542299" class="icon" viewBox="0 0 1024 1024" version="1.1" xmlns="http://www.w3.org/2000/svg" p-id="4052" xmlns:xlink="http://www.w3.org/1999/xlink" width="128" height="128"><path d="M318.64062473 434.65624973c25.76953152-103.1484375 90.24609348-154.68749973 193.35937527-154.68749973 154.68749973 0 174.05859402 116.015625 251.40234348 135.35156277 51.57421875 12.90234402 96.67968723-6.46875027 135.35156277-58.0078125-25.734375 103.11328098-90.21093777 154.68749973-193.35937527 154.68749973-154.68749973 0-174.0234375-116.015625-251.36718696-135.35156277-51.60937527-12.93749973-96.71484375 6.43359375-135.421875 58.0078125zM125.21093723 666.68749973c25.76953152-103.11328098 90.24609348-154.68749973 193.35937527-154.68749973 154.72265625 0 174.0234375 116.015625 251.4375 135.35156277 51.53906223 12.93749973 96.67968723-6.43359375 135.35156277-58.0078125-25.80468723 103.1484375-90.24609348 154.68749973-193.35937527 154.68749973-154.72265625 0-174.05859402-116.015625-251.4375-135.35156277-51.53906223-12.90234402-96.67968723 6.46875027-135.35156277 58.0078125z" fill="#4DB6AC" p-id="4053"></path></svg>