<?xml version="1.0" standalone="no"?><!DOCTYPE svg PUBLIC "-//W3C//DTD SVG 1.1//EN" "http://www.w3.org/Graphics/SVG/1.1/DTD/svg11.dtd"><svg t="1680363869786" class="icon" viewBox="0 0 1024 1024" version="1.1" xmlns="http://www.w3.org/2000/svg" p-id="2660" width="32" height="32" xmlns:xlink="http://www.w3.org/1999/xlink"><path d="M66.3552 66.3552v891.2896h891.2896V66.3552H66.3552z m677.249024 432.90897067v0.0131072c8.5458944 0.0262144 18.26051413 0.4653056 25.5655936 1.2582912 29.75115947 3.2178176 52.92032 16.05413547 72.63136427 40.23036586 9.81510827 12.04333227 13.172736 17.31242667 12.4583936 19.56686507-0.46093653 1.4548992-7.1958528 6.2783488-28.60864854 20.49092267-21.03487147 13.9657216-27.80910933 18.14910293-29.38197333 18.14910293-1.59689387 0-4.9217536-3.4209792-9.7124352-9.98987093-9.22965333-12.64626347-18.6515456-18.41780053-33.21582933-20.3423744-15.663104-2.07530667-29.7140224 2.86173867-36.5953024 12.86253226-5.88294827 8.5458944-6.77205333 22.2953472-2.097152 32.28740267 5.41764267 11.57147307 15.22182827 17.9699712 52.79361706 34.44353707 43.3324032 19.00107093 65.29133227 32.00559787 81.2843008 48.14711466 17.2228608 17.3801472 25.94788693 37.4472704 28.62830934 65.83309654 1.30853547 13.83683413-0.29054293 30.23394133-4.24891734 43.56614826-9.71025067 32.6828032-35.913728 56.61436587-74.317824 67.87781974-10.616832 3.11296-20.49529173 4.97199787-30.26670933 5.6885248-14.91817813 1.09882027-36.26980693 0.49370453-49.12141653-1.376256-32.51459413-4.7382528-69.2191232-23.658496-87.52114347-45.11061334-8.9849856-10.5316352-20.45597013-27.86372267-20.45597013-30.91114666 0-1.47237547 0.72963413-2.30905173 3.6175872-4.14405974 8.56773973-5.44385707 57.6585728-33.50637227 58.61102933-33.50637226 0.5767168 0 3.14135893 3.0212096 5.69726293 6.71525546 5.79119787 8.3623936 20.03217067 22.7344384 27.27171414 27.52948907 5.91353173 3.91686827 13.47638613 7.06041173 22.45481813 9.33014187 5.14239147 1.28232107 7.86432 1.51169707 19.0840832 1.51169706 11.46443093-0.00436907 13.8149888-0.196608 18.94427307-1.57504853 13.565952-3.6503552 24.15438507-11.206656 28.64141653-20.4341248 1.96608-3.98677333 2.0054016-4.48484693 2.0054016-14.155776v-10.027008l-2.4117248-4.784128c-5.8392576-11.59113387-18.4221696-19.54501973-58.20689067-36.77661867-18.27362133-7.9167488-40.65416533-19.0775296-49.39229866-24.63061333-19.9426048-12.67247787-33.7641472-27.16030293-42.8343296-44.89434453-9.02212267-17.6357376-10.36561067-24.20026027-10.387456-50.7183104-0.02184533-20.75962027-0.05679787-20.50402987 4.2401792-33.75322454 3.899392-12.02367147 11.8816768-25.4541824 20.69408426-34.82146133 17.58549333-18.69305173 43.28215893-30.70798507 70.7919872-33.09786453 3.51709867-0.3342336 8.2313216-0.46312107 13.35842134-0.44782934z m-236.716032 4.10036906h0.00873813c52.98148693 0.0262144 83.35305387 0.2097152 83.8402048 0.51554987 0.917504 0.56797867 1.03328427 5.17952853 1.03328427 34.60737707v33.94983253l-52.8678912 0.19223893-52.8678912 0.19223894v150.10583893c0 82.56006827-0.16820907 150.59735893-0.39758507 151.1981056-0.3735552 1.01143893-4.44115627 1.0878976-38.84100266 1.0878976h-38.41938774l-0.39758506-1.55101867c-0.2555904-0.851968-0.44346027-68.89362773-0.44782934-151.20029013l-0.0131072-149.64927147-52.86570666-0.18786986-52.87007574-0.19223894v-33.5478784c0-26.607616 0.1835008-33.73356373 0.89347414-34.44135253 0.7274496-0.74929493 27.7086208-0.94153387 143.96511573-1.05731413 22.413312-0.02184533 42.58747733-0.032768 60.24942933-0.02184534z" fill="#0288D1" p-id="2661"></path></svg>