<?xml version="1.0" standalone="no"?><!DOCTYPE svg PUBLIC "-//W3C//DTD SVG 1.1//EN" "http://www.w3.org/Graphics/SVG/1.1/DTD/svg11.dtd"><svg t="1698826389863" class="icon" viewBox="0 0 1024 1024" version="1.1" xmlns="http://www.w3.org/2000/svg" p-id="4022" xmlns:xlink="http://www.w3.org/1999/xlink" width="128" height="128"><path d="M539.76464844 718.54137067c0-99.2868429 80.48943572-179.77627863 179.77627863-179.77627862s179.77627863 80.48943572 179.77627784 179.77627862-80.48943572 179.77627863-179.77627784 179.77627862-179.77627863-80.48943572-179.77627863-179.77627862z" fill="#666666" fill-opacity=".6" p-id="4023"></path><path d="M539.76464844 305.45862933c0-99.2868429 80.48943572-179.77627863 179.77627863-179.77627862s179.77627863 80.48943572 179.77627784 179.77627862v161.79865022a17.97762762 17.97762762 0 0 1-17.97762764 17.9776284h-323.59730121a17.97762762 17.97762762 0 0 1-17.97762762-17.9776284v-161.79865022z" fill="#666666" fill-opacity=".3" p-id="4024"></path><path d="M484.23535156 718.54137067c0 99.2868429-80.48943572 179.77627863-179.77627863 179.77627862s-179.77627863-80.48943572-179.77627784-179.77627862v-161.79865022a17.97762762 17.97762762 0 0 1 17.97762764-17.9776284h323.59730121a17.97762762 17.97762762 0 0 1 17.97762762 17.9776284v161.79865022z" fill="#666666" p-id="4025"></path></svg>